<?xml version="1.0" encoding="UTF-8"?>
<svg xmlns="http://www.w3.org/2000/svg" id="a" width="865.76" height="682.89" viewBox="0 0 865.76 682.89">
  <g>
    <g>
      <path d="M778.14,265.98c0,2.15-.04,4.29-.12,6.42-3.38,100.5-85.91,180.92-187.23,180.92-30.85,0-59.95-7.45-85.61-20.69-37.12-19.09-67.03-50.23-84.58-88.25-10.21-22.13-16.24-46.58-17.06-72.36-.06-2.01-.1-4.02-.1-6.05,0-52.51,21.62-100,56.44-133.99,33.76-33.04,79.95-53.35,130.91-53.35,18.7,0,36.77,2.73,53.8,7.85,77.24,23.13,133.54,94.73,133.54,179.5Z" fill="#fff"></path>
      <path d="M590.79,453.82c-30.27,0-59.15-6.98-85.84-20.74-37.18-19.11-67.29-50.54-84.8-88.48-10.54-22.86-16.3-47.27-17.1-72.56-.07-2.29-.1-4.22-.1-6.07,0-51,20.1-98.72,56.59-134.35,35.25-34.5,81.87-53.5,131.26-53.5,18.41,0,36.56,2.65,53.95,7.87,37.91,11.35,72,35.08,95.99,66.81,24.8,32.8,37.91,71.93,37.91,113.17,0,2.15-.04,4.32-.12,6.44-1.64,48.81-21.9,94.45-57.04,128.49-35.22,34.12-81.63,52.91-130.69,52.91Zm0-374.69c-49.13,0-95.49,18.9-130.56,53.21-36.3,35.44-56.29,82.9-56.29,133.63,0,1.84,.03,3.75,.1,6.04,.8,25.15,6.52,49.43,17.01,72.17,17.42,37.74,47.38,69,84.35,88.01,26.55,13.69,55.28,20.63,85.38,20.63,101.31,0,183.33-79.26,186.73-180.44,.08-2.11,.12-4.27,.12-6.4,0-81.93-54.77-155.54-133.19-179.02-17.3-5.19-35.35-7.82-53.66-7.82Z" fill="#231f20"></path>
    </g>
    <g>
      <path d="M778.14,265.98c0,2.15-.04,4.29-.12,6.42-8.88-10.44-14.52-13.25-14.52-13.25-8.24-4.7-14.32,1.91-17.88,7.94-2.28,3.84-3.36,8.25-3.34,12.74,.04,5.66-.92,9.35-2.17,11.79-2.19,4.22-7.92,5.11-11.36,1.81-5.62-5.39-10.15-16.72-10.15-16.72-4.12-8.24-8.24-13.7-11.63-17.25-3.61-3.79-8.37-6.24-13.5-7.18-11.75-2.14-23.49-4.27-35.22-6.41-.78-.14-1.35,.73-.91,1.39l3.96,5.94c1.46,2.18,3.92,3.55,6.54,3.47,5.79-.18,9.79,2.49,9.79,2.49,9.76,5.85-7.81,19.52-7.81,19.52-5.7,4.08-10.73,5.43-14.66,5.62-4.39,.21-8.65-1.6-11.77-4.72l-11.98-11.98c-.27-.27-.76-.14-.84,.23-1.95,9.04,5.97,17.95,11.32,22.77,2.62,2.38,6.21,3.36,9.68,2.65l10.15-2.03c1.78-.35,3.59,.41,4.59,1.91l.04,.04c3.49,5.35-4.64,15.01-12.14,30.39-1.13,2.34-2.56,5.41-4.06,9.15-2.32,5.74-3.49,11.88-3.49,18.05,0,24.63-8.06,39.15-8.06,39.15-13.45,19.05-23.67,26.52-29.95,29.42-4.11,1.9-8.88,1.72-12.86-.44-11.07-6-17.29-19.88-20.51-30.18-2.05-6.55-3.02-13.4-3.02-20.27v-25.37c-3.9-23.42-23.42-21.47-23.42-21.47h-29.27c-33.18-1.95-15.61-54.64-15.61-54.64,8.24-22.66,23.55-30.64,36.16-33.14,10.73-2.11,21.82,1.07,30.19,8.1,1.29,1.07,2.93,1.68,4.63,1.78l32.45,1.8c21.47,0,11.71-15.61,11.71-15.61-19.52,7.81-21.47,0-21.47,0-3.9-13.66,25.37-15.61,25.37-15.61,13.66-3.9-1.95-13.66-1.95-13.66-23.42-9.76-21.47,5.85-21.47,5.85,3.9,7.81-1.95,9.76-1.95,9.76-7.81,0-7.81,5.85-7.81,5.85-3.9,11.71-9.76,3.9-9.76,3.9l-11.9-20.41c-1.05-1.8-3.51-2.21-5.09-.72-1.25,1.17-1.27,3.18-.18,4.53l10.03,12.57c1.83,2.28,1.33,5.66-1.13,7.3-2.13,1.42-5,.86-6.71-1.03l-14.29-15.89c-5.39-4.04-10.79,.29-13.6,3.36-1.13,1.23-1.48,2.97-.88,4.51,2.81,7.08-6.99,13.6-6.99,13.6-7.81,7.81-11.71,3.9-11.71,3.9l-5.37-4.02c-2.26-1.7-3.94-4.18-4.33-6.97-1.37-9.54,11.65-12.43,11.65-12.43,4.53-2.26,4.47-6.52,3.59-9.68-.72-2.65,.21-5.5,2.36-7.26l14.48-11.84c1.93-1.58,3.22-3.81,3.63-6.27l.88-5.29c.18-1.09,1.48-1.54,2.3-.82,14.5,13,24.39,4.39,27.91,.18,.9-1.05,1.15-2.46,.88-3.81-1.5-6.99,4.88-11.65,7.4-13.19,.37-.23,.27-.78-.14-.92-10.69-3.61-10.83-12.29-10.66-14.66,.02-.29-.27-.53-.57-.43-3.82,1.17-5.62,3.82-6.46,6.05-.62,1.68-.7,3.51-.39,5.31,2.97,17.74-6.19,17.74-6.19,17.74-9.76,0-9.76-9.76-9.76-9.76-5.85,5.85-9.76-1.95-9.76-1.95-9.76-13.66,17.56-46.84,17.56-46.84,19.52-19.52,42.93,0,42.93,0,9.76,5.85-3.9,9.76-3.9,9.76-3.38,1.13-4.16,2.91-4.22,4.2-.04,.98,.47,1.87,1.23,2.48,3.04,2.42,6.28,2.17,9.09,1,4.04-1.7,6.99-5.43,7.57-9.76,1.35-10.3,13.09-12.76,18.6-13.35,2.6-.27,5.11-.96,7.4-2.21,8.63-4.72,9.85-11.44,9.25-16.47,77.24,23.13,133.54,94.73,133.54,179.5Z" fill="#2bb673"></path>
      <path d="M602.69,421.12c-2.46,0-4.92-.6-7.13-1.81-11.15-6.05-17.44-19.91-20.75-30.47-2.02-6.45-3.05-13.32-3.05-20.41v-25.37c-3.77-22.58-22.09-21.04-22.87-20.97h-29.32c-7.21-.42-12.62-3.24-16.1-8.37-10.36-15.3-.42-45.64,0-46.92,8.49-23.36,24.56-31.09,36.54-33.47,10.73-2.11,21.88,.88,30.61,8.21,1.17,.98,2.71,1.57,4.33,1.66l32.45,1.8c6.68,0,10.92-1.53,12.59-4.53,2.04-3.67-.38-8.6-1.13-9.96-11.02,4.34-16.47,3.66-19.1,2.31-2.18-1.12-2.61-2.75-2.63-2.82-.75-2.61-.37-5.02,1.11-7.13,5.34-7.6,23.31-9,24.66-9.09,3.19-.92,4.93-2.22,5.16-3.86,.55-3.92-7.21-8.83-7.29-8.88-8.48-3.53-14.75-4.08-18.05-1.58-2.94,2.23-2.72,6.25-2.66,6.87,1.42,2.87,1.73,5.33,.91,7.3-.96,2.31-3.1,3.05-3.19,3.08l-.16,.03c-7.22,0-7.31,5.14-7.31,5.35l-.03,.16c-1.38,4.12-3.18,6.39-5.36,6.75-2.88,.46-5.18-2.57-5.28-2.7l-11.94-20.46c-.43-.74-1.16-1.23-2.01-1.35-.84-.12-1.68,.15-2.31,.74-1.04,.97-1.09,2.66-.13,3.85l10.03,12.57c.96,1.2,1.38,2.76,1.15,4.28-.24,1.52-1.11,2.89-2.39,3.74-2.25,1.51-5.42,1.03-7.36-1.11l-14.29-15.89c-5.04-3.77-10.22,.49-12.86,3.36-1.01,1.1-1.31,2.63-.78,3.99,2.92,7.37-6.76,13.93-7.17,14.2-3.26,3.27-6.33,4.96-9.06,4.96h0c-2.13,0-3.24-1.08-3.28-1.12l-5.31-3.97c-2.49-1.87-4.14-4.53-4.53-7.3-1.36-9.53,10.97-12.73,11.97-12.97,4.2-2.13,4.11-6.11,3.28-9.07-.77-2.84,.22-5.89,2.53-7.78l14.48-11.84c1.84-1.5,3.06-3.62,3.45-5.96l.88-5.29c.11-.69,.57-1.24,1.23-1.48,.65-.23,1.38-.1,1.9,.36,5.38,4.83,10.62,7.09,15.6,6.73,5.72-.42,9.72-4.25,11.6-6.5,.75-.88,1.03-2.11,.77-3.39-1.55-7.21,4.82-12,7.63-13.72-10.86-3.67-11.22-12.32-11.04-15.07-3.65,1.15-5.3,3.74-6.05,5.72-.55,1.49-.68,3.23-.37,5.05,1.25,7.46,.56,12.8-2.04,15.87-2.05,2.43-4.53,2.45-4.64,2.45-8.16,0-9.83-6.58-10.17-9.2-1.54,1.29-3.11,1.81-4.65,1.56-3.2-.52-5.07-4.19-5.14-4.35-9.83-13.75,16.5-46.01,17.62-47.38,19.64-19.65,43.4-.26,43.64-.07,2.64,1.58,3.89,3.25,3.67,4.95-.47,3.55-7.46,5.59-7.75,5.68-2.44,.82-3.78,2.11-3.85,3.74-.03,.76,.35,1.51,1.04,2.06,2.47,1.96,5.36,2.27,8.59,.93,3.93-1.65,6.71-5.24,7.27-9.36,1.41-10.76,13.78-13.22,19.04-13.78,2.7-.28,5.13-1.01,7.21-2.15,8.46-4.63,9.56-11.24,8.99-15.97l-.09-.76,.73,.22c37.91,11.35,72,35.08,95.99,66.81,24.8,32.8,37.91,71.93,37.91,113.17,0,2.15-.04,4.32-.12,6.44l-.05,1.29-.83-.98c-8.69-10.21-14.31-13.1-14.36-13.13-7.83-4.47-13.69,1.75-17.22,7.75-2.16,3.63-3.29,7.95-3.27,12.49,.04,5.03-.71,9.07-2.22,12.02-1.11,2.13-3.12,3.59-5.53,3.98-2.44,.4-4.85-.34-6.62-2.04-5.63-5.4-10.08-16.43-10.27-16.9-3.5-6.99-7.38-12.76-11.53-17.09-3.49-3.66-8.07-6.09-13.23-7.04-10.57-1.92-21.12-3.84-31.67-5.76l-3.55-.65c-.23-.04-.37,.12-.41,.17-.03,.05-.14,.24,0,.45l3.96,5.94c1.38,2.07,3.74,3.34,6.11,3.24,5.92-.18,9.92,2.46,10.08,2.57,1.97,1.18,3.04,2.79,3.16,4.75,.4,6.67-10.48,15.21-10.94,15.57-4.97,3.56-9.99,5.48-14.94,5.73-4.4,.22-8.83-1.56-12.15-4.87l-11.98-11.98c-1.92,8.9,6.17,17.78,11.17,22.28,2.48,2.26,5.93,3.21,9.25,2.54l10.15-2.03c1.96-.39,3.95,.43,5.07,2.08l.07,.08c2.63,4.02-.66,9.88-5.64,18.75-2,3.56-4.27,7.6-6.47,12.12-.98,2.02-2.46,5.17-4.04,9.12-2.29,5.67-3.46,11.68-3.46,17.87,0,24.47-8.04,39.24-8.12,39.39-13.57,19.23-23.9,26.72-30.17,29.63-1.95,.9-4.07,1.35-6.18,1.35Zm-52.87-100.06c4.06,0,19.51,1.38,22.93,21.92v25.45c0,6.99,1.02,13.76,3.01,20.12,3.25,10.39,9.42,24,20.28,29.89,3.84,2.09,8.49,2.24,12.42,.42,6.17-2.86,16.33-10.25,29.75-29.26,.05-.1,7.97-14.66,7.97-38.86,0-6.32,1.19-12.46,3.53-18.24,1.6-3.98,3.09-7.15,4.07-9.18,2.22-4.55,4.49-8.6,6.5-12.18,4.61-8.21,7.94-14.16,5.7-17.68l-.06-.08c-.89-1.34-2.49-2.01-4.07-1.7l-10.15,2.03c-3.62,.73-7.4-.31-10.11-2.77-5.15-4.65-13.5-13.85-11.47-23.25,.08-.35,.34-.63,.69-.73,.36-.1,.74,0,1,.25l11.98,11.98c3.11,3.11,7.26,4.78,11.39,4.58,4.75-.24,9.6-2.1,14.39-5.53,.09-.07,10.91-8.56,10.54-14.71-.1-1.64-.98-2.94-2.7-3.97-.06-.04-4-2.6-9.52-2.42-2.74,.07-5.4-1.33-6.97-3.69l-3.96-5.94c-.32-.48-.32-1.07,0-1.55,.32-.48,.86-.71,1.42-.61l3.55,.65c10.55,1.92,21.1,3.84,31.67,5.76,5.38,.98,10.14,3.52,13.78,7.33,4.21,4.41,8.16,10.25,11.72,17.37,.06,.15,4.57,11.34,10.05,16.59,1.54,1.48,3.64,2.12,5.77,1.77,2.09-.35,3.84-1.6,4.8-3.45,1.43-2.8,2.14-6.69,2.11-11.55-.02-4.72,1.16-9.21,3.41-13,3.76-6.39,10.04-12.98,18.55-8.12,.2,.1,5.46,2.78,13.81,12.39,.05-1.7,.07-3.42,.07-5.12,0-81.68-54.44-155.09-132.47-178.8,.4,4.97-1.07,11.55-9.58,16.21-2.2,1.2-4.75,1.97-7.58,2.26-5.02,.53-16.84,2.86-18.15,12.92-.6,4.48-3.62,8.37-7.87,10.15-3.59,1.5-6.82,1.14-9.6-1.06-.94-.75-1.46-1.8-1.42-2.89,.07-1.45,.91-3.43,4.56-4.65,1.87-.54,6.74-2.44,7.06-4.85,.17-1.26-.93-2.61-3.25-4-.29-.24-23.36-19.04-42.32-.08-.24,.29-26.93,33-17.51,46.19,.06,.1,1.76,3.44,4.45,3.87,1.45,.23,2.99-.43,4.54-1.98l.85-.85v1.2c0,.38,.13,9.26,9.26,9.26,.08,0,2.15-.04,3.89-2.12,1.64-1.96,3.28-6.15,1.8-15.03-.34-1.98-.2-3.91,.42-5.56,.83-2.21,2.68-5.1,6.78-6.35,.28-.1,.61-.04,.85,.15,.25,.19,.38,.48,.36,.79-.18,2.44,.03,10.67,10.32,14.15,.38,.13,.65,.46,.7,.85,.05,.38-.13,.75-.46,.96-2.63,1.61-8.59,6.07-7.17,12.67,.32,1.58-.04,3.12-.99,4.23-1.97,2.37-6.2,6.41-12.29,6.85-5.24,.38-10.74-1.97-16.33-6.98-.25-.22-.58-.28-.9-.17-.31,.11-.52,.37-.58,.7l-.88,5.29c-.43,2.58-1.78,4.92-3.81,6.57l-14.48,11.84c-2,1.64-2.86,4.28-2.2,6.74,1.31,4.72-.06,8.36-3.85,10.26l-.12,.04c-.13,.03-12.55,2.9-11.26,11.87,.35,2.51,1.86,4.93,4.14,6.64l5.37,4.02c.2,.19,3.74,3.46,11.06-3.86,.17-.13,9.5-6.44,6.88-13.06-.67-1.72-.3-3.65,.97-5.03,2.87-3.12,8.53-7.72,14.27-3.42l14.36,15.95c1.61,1.78,4.22,2.19,6.06,.95,1.07-.71,1.76-1.8,1.96-3.07,.19-1.25-.15-2.52-.94-3.5l-10.03-12.57c-1.29-1.59-1.19-3.88,.23-5.2,.85-.8,1.99-1.17,3.14-1,1.15,.17,2.14,.83,2.73,1.84l11.9,20.41h0s2.02,2.64,4.29,2.27c1.75-.29,3.32-2.36,4.54-6.01,.04-.78,.63-6.22,8.21-6.26,.34-.14,1.84-.82,2.52-2.5,.7-1.71,.39-3.9-.93-6.54l-.05-.16c-.03-.21-.59-5.1,3.04-7.86,3.65-2.78,10.09-2.28,19.12,1.48,.42,.25,8.47,5.34,7.83,9.91-.29,2.08-2.29,3.65-5.93,4.7l-.1,.02c-.19,.01-18.8,1.34-23.96,8.68-1.3,1.85-1.63,3.97-.96,6.3,.02,.06,.37,1.31,2.17,2.21,2.49,1.24,7.74,1.81,18.63-2.54l.39-.16,.22,.35c.17,.26,4.02,6.54,1.36,11.33-1.86,3.35-6.4,5.05-13.5,5.05l-32.48-1.8c-1.83-.11-3.58-.78-4.92-1.89-8.49-7.13-19.34-10.04-29.77-7.99-11.73,2.32-27.46,9.9-35.79,32.82-.1,.3-10.21,31.15-.12,46.03,3.29,4.86,8.44,7.53,15.3,7.94h29.24s.37-.03,.98-.03Zm21.88-180.39h0s0,0,0,0h0Z" fill="#231f20"></path>
    </g>
    <g>
      <path d="M670.11,364.47c-1.19-4.29-6.33-6.17-10.14-3.87-3.39,2.04-7.71,5.81-7.71,11.74,0,0-1.95,15.61,5.85,17.56,0,0,5.85,0,11.71-15.61,0,0,1.52-5.34,.29-9.81Z" fill="#2bb673"></path>
      <path d="M658.12,390.4l-.12-.02c-8.14-2.04-6.31-17.46-6.23-18.11,0-6.03,4.32-9.92,7.95-12.1,1.97-1.19,4.45-1.38,6.62-.52,2.11,.84,3.67,2.55,4.26,4.69h0c1.26,4.56-.22,9.86-.29,10.08-5.92,15.79-11.94,15.98-12.19,15.98Zm5.43-30.28c-1.16,0-2.31,.31-3.31,.91-3.41,2.05-7.47,5.68-7.47,11.31-.02,.21-1.8,15.15,5.4,17.06,.55-.06,5.86-1.05,11.19-15.28,0-.01,1.46-5.22,.27-9.51-.51-1.83-1.84-3.3-3.67-4.03-.78-.31-1.6-.46-2.42-.46Z" fill="#231f20"></path>
    </g>
    <g>
      <path d="M445.41,171.33s-9.76,13.66-11.71,31.22c0,0,1.55,13.92-10.51,27.99-5.79,6.76-8.95,15.45-9.01,24.35,0,.12,0,.23,0,.35,0,0,1.17,11.69-1.02,18.78-.89,2.9-4.54,3.81-6.66,1.64-.92-.94-1.94-2.14-2.96-3.63-.06-2.01-.1-4.02-.1-6.05,0-52.51,21.62-100,56.44-133.99,.8,6.99-1.17,19.38-14.48,39.34Z" fill="#2bb673"></path>
      <path d="M409.33,277.36c-1.19,0-2.33-.47-3.19-1.35-1.07-1.09-2.08-2.34-3.01-3.7l-.08-.12v-.15c-.07-2.29-.1-4.22-.1-6.06,0-51,20.1-98.72,56.59-134.35l.73-.71,.12,1.01c.79,6.94-1.09,19.46-14.56,39.68h0c-.1,.15-9.69,13.75-11.61,30.95,.09,1.02,1.03,14.71-10.63,28.31-5.67,6.62-8.83,15.15-8.89,24.03v.35c.04,.43,1.15,11.82-1.04,18.93-.47,1.54-1.69,2.69-3.25,3.06-.35,.09-.71,.13-1.07,.13Zm-5.29-5.5c.87,1.27,1.82,2.43,2.82,3.45,.87,.89,2.1,1.24,3.3,.95,1.21-.29,2.16-1.19,2.53-2.39,2.13-6.92,1.01-18.47,1-18.58v-.4c.06-9.11,3.3-17.87,9.12-24.67,11.76-13.73,10.41-27.48,10.39-27.61v-.05s0-.06,0-.06c1.93-17.33,11.52-31.07,11.79-31.45,12.65-18.98,14.96-31,14.49-37.96-35.82,35.36-55.54,82.51-55.54,132.89,0,1.8,.03,3.67,.09,5.89Z" fill="#231f20"></path>
    </g>
    <g>
      <path d="M505.18,432.63c-37.12-19.09-67.03-50.23-84.58-88.25,7.98-6.63,25.62-14.89,44.32,18.19,0,0,19.52,40.98,35.13,58.55,0,0,3.57,4.76,5.13,11.51Z" fill="#2bb673"></path>
      <path d="M505.91,433.57l-.96-.49c-37.18-19.12-67.29-50.54-84.8-88.48l-.16-.35,.3-.25c4.19-3.48,10.88-7.32,18.99-5.83,9.2,1.69,17.98,9.82,26.08,24.16,.21,.44,19.68,41.15,35.07,58.46,.17,.23,3.68,4.96,5.25,11.73l.24,1.05Zm-84.69-89.04c17.29,37.25,46.8,68.15,83.21,87.15-1.62-6-4.75-10.22-4.78-10.26-15.45-17.38-34.98-58.22-35.18-58.63-7.94-14.04-16.48-22-25.38-23.63-7.54-1.38-13.84,2.1-17.87,5.37Z" fill="#231f20"></path>
    </g>
    <g>
      <path d="M416.38,288.58c4.26,1.5,9.86,5.47,15.91,15.08,1.26,2,1.46,4.61,.16,6.59-1.52,2.32-4.9,3.93-12.42-.36,0,0-9.07-5.67-11.65-13.55-1.6-4.86,3.16-9.46,8-7.76Z" fill="#2bb673"></path>
      <path d="M427.95,313.07c-2,0-4.65-.75-8.16-2.75-.39-.25-9.27-5.86-11.88-13.82-.79-2.42-.15-5.03,1.69-6.83,1.86-1.82,4.52-2.41,6.95-1.56h0c5.57,1.96,11.01,7.1,16.17,15.28,1.44,2.28,1.5,5.08,.16,7.13-.88,1.35-2.38,2.54-4.92,2.54Zm-13.64-24.34c-1.47,0-2.91,.57-4.02,1.65-1.58,1.55-2.12,3.72-1.44,5.8,2.5,7.61,11.36,13.22,11.44,13.28,5.74,3.28,9.8,3.46,11.73,.51,1.13-1.72,1.06-4.1-.17-6.05-5.03-7.99-10.3-12.99-15.66-14.87h0c-.62-.22-1.27-.33-1.9-.33Z" fill="#231f20"></path>
    </g>
  </g>
  <g>
    <g>
      <path d="M589.77,316.97c.02,.1-.11,.15-.16,.07-2.13-2.77-18.69-25.07-6.94-32.16,2.06-1.24,4.57-1.59,6.88-.93l-3.45,9.71,3.67,23.31Z" fill="#231f20"></path>
      <path d="M589.67,317.58c-.18,0-.36-.08-.47-.23-2.16-2.81-12.82-17.31-11.02-26.83,.5-2.64,1.92-4.67,4.22-6.06,2.19-1.32,4.84-1.68,7.28-.99l.51,.15-3.59,10.09,3.65,23.19c.04,.27-.1,.53-.36,.64-.08,.03-.15,.05-.23,.05Zm-2.48-33.46c-1.49,0-2.97,.4-4.27,1.19-2.04,1.23-3.31,3.05-3.75,5.39-1.53,8.07,6.78,20.47,9.84,24.71l-3.44-21.8,3.31-9.31c-.56-.12-1.13-.18-1.7-.18Z" fill="#231f20"></path>
    </g>
    <g>
      <path d="M595.59,284.35c-2.15-1.08-4.68-1.2-6.94-.35-13.72,5.17,1.08,33.47,1.08,33.47,17.48-23,10.74-30.66,5.86-33.12Zm-3.09,12.23c-.67,0-1.3-.19-1.83-.51-1.02-.62-1.69-1.73-1.69-3.01s.69-2.43,1.74-3.03c.52-.31,1.13-.49,1.79-.49,1.95,0,3.52,1.58,3.52,3.52s-1.58,3.52-3.52,3.52Z" fill="#84a1e5"></path>
      <path d="M589.65,318.4l-.37-.7c-.4-.77-9.85-19.03-6.09-28.9,.97-2.54,2.74-4.32,5.27-5.27,2.4-.9,5.07-.77,7.34,.37,2,1,4.56,2.99,5.43,6.76,1.47,6.35-2.27,15.47-11.11,27.11l-.48,.63Zm2.07-34.46c-.98,0-1.96,.18-2.9,.53-2.25,.85-3.83,2.43-4.69,4.69-3.2,8.39,3.97,23.87,5.68,27.37,8.31-11.08,11.82-19.7,10.45-25.64-.79-3.39-3.1-5.19-4.9-6.09h0c-1.13-.57-2.38-.86-3.63-.86Zm.77,13.14c-.74,0-1.47-.2-2.09-.59-1.21-.73-1.93-2.02-1.93-3.44s.76-2.75,1.98-3.47c.61-.36,1.32-.56,2.04-.56,2.22,0,4.02,1.8,4.02,4.02s-1.8,4.02-4.02,4.02Zm0-7.05c-.54,0-1.07,.14-1.53,.42-.92,.54-1.49,1.54-1.49,2.61s.54,2.03,1.45,2.58c.47,.29,1.01,.44,1.57,.44,1.67,0,3.02-1.36,3.02-3.02s-1.36-3.02-3.02-3.02Z" fill="#231f20"></path>
    </g>
    <g>
      <path d="M596.02,293.07c0,1.95-1.58,3.52-3.52,3.52-.67,0-1.3-.19-1.83-.51,1.52-2.64,.75-4.84,.05-6.04,.52-.31,1.13-.49,1.79-.49,1.95,0,3.52,1.58,3.52,3.52Z" fill="#231f20"></path>
      <path d="M592.5,297.09c-.74,0-1.47-.2-2.09-.59l-.42-.25,.24-.42c1.36-2.35,.77-4.31,.05-5.54l-.25-.43,.43-.25c.61-.37,1.32-.56,2.04-.56,2.22,0,4.02,1.8,4.02,4.02s-1.8,4.02-4.02,4.02Zm-1.15-1.23c.36,.15,.75,.23,1.15,.23,1.67,0,3.02-1.36,3.02-3.02s-1.36-3.02-3.02-3.02c-.38,0-.75,.07-1.1,.21,.6,1.22,1.12,3.24-.05,5.61Z" fill="#231f20"></path>
    </g>
  </g>
  <g>
    <g>
      <path d="M601.64,84.09l12.71-4.1s4.92,5.33,4.1,11.07l-8.17,2.72-8.64-9.69Z" fill="#fff"></path>
      <path d="M610.12,94.36l-9.37-10.51,13.74-4.43,.22,.23c.21,.22,5.07,5.57,4.23,11.48l-.04,.31-8.77,2.92Zm-7.6-10.03l7.91,8.87,7.56-2.52c.49-4.66-2.92-9.06-3.8-10.11l-11.66,3.76Z" fill="#231f20"></path>
    </g>
    <g>
      <path d="M626.23,123.85l5.33-2.05s3.69,4.92,4.1,11.07l-12.3,5.74,2.87-14.75Z" fill="#fff"></path>
      <path d="M622.68,139.47l3.11-15.99,5.94-2.28,.23,.3c.15,.21,3.78,5.11,4.2,11.33l.02,.34-13.5,6.3Zm3.98-15.26l-2.63,13.52,11.09-5.18c-.43-4.93-2.99-9.03-3.76-10.15l-4.71,1.81Z" fill="#231f20"></path>
    </g>
    <g>
      <path d="M601.64,127.13l2.87,8.61,.41,45.9-1.4,17.82c-.08,1,1.15,1.52,1.82,.78l10.35-11.61c.73-.82,1.22-1.82,1.41-2.9l12.53-70.18-27.99,11.58Z" fill="#84a1e5"></path>
      <path d="M604.56,201.08c-.21,0-.41-.04-.62-.13-.62-.26-.98-.87-.93-1.54l1.4-17.82-.41-45.78-2.99-8.97,29.27-12.11-12.69,71.08c-.21,1.17-.74,2.26-1.53,3.14l-10.35,11.61c-.3,.34-.72,.52-1.14,.52Zm-2.31-73.67l2.75,8.32,.41,45.9-1.4,17.86c-.03,.36,.24,.51,.33,.54,.08,.04,.38,.13,.62-.14l10.35-11.61c.67-.75,1.11-1.67,1.29-2.65l12.37-69.28-26.72,11.06Z" fill="#231f20"></path>
    </g>
    <path d="M609.01,190.74c-.14,0-.28-.06-.37-.17-.18-.21-.16-.52,.04-.71l3.56-3.16,12.58-69.71c.05-.27,.31-.45,.58-.4,.27,.05,.45,.31,.4,.58l-12.61,69.88c-.02,.11-.08,.21-.16,.28l-3.69,3.28c-.09,.08-.21,.13-.33,.13Z" fill="#231f20"></path>
    <path d="M604.96,155.34c-.22,0-.43-.15-.48-.38-.07-.27,.09-.54,.36-.61l8.98-2.3c.27-.07,.54,.09,.61,.36s-.09,.54-.36,.61l-8.98,2.3s-.08,.02-.12,.02Z" fill="#231f20"></path>
    <g>
      <path d="M593.85,107.86l-3.75-8.31-32.88-32.4-13.26-11.99c-.74-.67-.21-1.9,.79-1.81l15.5,1.32c1.09,.09,2.13,.49,3.02,1.14l58.97,41.15-28.38,10.91Z" fill="#84a1e5"></path>
      <path d="M593.59,108.5l-3.9-8.66-32.82-32.34-13.24-11.97c-.5-.45-.65-1.14-.38-1.76,.27-.62,.88-.98,1.54-.92l15.5,1.32c1.18,.1,2.32,.53,3.27,1.23l59.73,41.68-29.7,11.41Zm-48.94-54.65c-.32,0-.45,.25-.49,.33-.04,.08-.13,.38,.13,.62l13.26,11.98,32.97,32.48,3.59,7.97,27.06-10.4-58.2-40.61c-.82-.6-1.77-.96-2.77-1.05l-15.5-1.32s-.04,0-.06,0Z" fill="#231f20"></path>
    </g>
    <path d="M618.03,99.3c-.1,0-.2-.03-.29-.09l-58.68-40.78-4.77,.15h-.02c-.27,0-.49-.21-.5-.48,0-.28,.21-.51,.48-.52l4.93-.15c.11,0,.21,.03,.3,.09l58.82,40.87c.23,.16,.28,.47,.12,.7-.1,.14-.25,.21-.41,.21Z" fill="#231f20"></path>
    <path d="M577.3,85.86c-.18,0-.35-.09-.44-.26-.13-.24-.05-.55,.19-.68l8.1-4.5c.24-.13,.55-.05,.68,.19,.13,.24,.05,.55-.19,.68l-8.1,4.5c-.08,.04-.16,.06-.24,.06Z" fill="#231f20"></path>
    <g>
      <polygon points="506.14 121.8 522.12 144.75 535.24 138.6 514.34 118.52 506.14 121.8" fill="#84a1e5"></polygon>
      <path d="M521.96,145.38l-16.58-23.81,9.08-3.63,21.66,20.81-14.16,6.64Zm-15.05-23.35l15.38,22.09,12.08-5.66-20.15-19.35-7.31,2.93Z" fill="#231f20"></path>
    </g>
    <g>
      <polygon points="537.29 148.03 536.88 173.85 528.27 177.54 524.58 148.85 537.29 148.03" fill="#84a1e5"></polygon>
      <path d="M527.86,178.26l-3.84-29.87,13.78-.89-.42,26.69-9.51,4.08Zm-2.71-28.94l3.54,27.5,7.7-3.3,.4-24.96-11.63,.75Z" fill="#231f20"></path>
    </g>
    <g>
      <path d="M679.58,81.11l-13.36,.39c-2.87,.08-5.7,.66-8.38,1.7l-98.42,38.19s-26.77,14.09-40.14,25.94c-1.08,.96-.37,2.74,1.07,2.69,9.27-.27,32.98-1.81,51.37-10.19l93.75-39.39c2.52-1.06,4.84-2.51,6.89-4.32l9.76-8.59c2.58-2.27,.9-6.53-2.53-6.43Z" fill="#fff"></path>
      <path d="M520.3,150.52c-.84,0-1.59-.5-1.9-1.29-.32-.81-.11-1.7,.54-2.28,13.27-11.76,39.97-25.87,40.24-26.01l98.47-38.21c2.74-1.06,5.61-1.64,8.55-1.73l13.36-.39c1.79-.03,3.35,.98,4,2.64,.65,1.66,.21,3.49-1.12,4.66l-9.76,8.59c-2.09,1.84-4.46,3.32-7.03,4.4l-93.75,39.39c-18.43,8.41-42.19,9.96-51.55,10.23-.02,0-.04,0-.06,0Zm159.29-68.91l-13.36,.39c-2.82,.08-5.58,.64-8.21,1.66l-98.42,38.19c-.21,.12-26.82,14.17-39.99,25.85-.4,.36-.41,.83-.28,1.16,.13,.33,.46,.68,1,.66,9.3-.27,32.9-1.81,51.18-10.15l93.76-39.4c2.47-1.04,4.74-2.46,6.75-4.23l9.76-8.59c1.23-1.08,1.25-2.54,.85-3.54s-1.42-2.08-3.04-2.01Z" fill="#231f20"></path>
    </g>
    <path d="M674.18,93.2s-.06,0-.09,0c-.27-.05-.45-.31-.4-.58,1.15-6.14-3.29-9.2-3.48-9.33-.23-.15-.29-.46-.14-.69,.15-.23,.46-.29,.69-.14,.05,.03,5.18,3.54,3.9,10.34-.04,.24-.25,.41-.49,.41Z" fill="#231f20"></path>
  </g>
  <g>
    <path d="M507.59,157.37c-.08,0-.17-.02-.24-.06-.24-.13-.33-.44-.2-.68,.93-1.69,1.5-2.6,1.52-2.63,.15-.24,.46-.3,.69-.16,.23,.15,.31,.45,.16,.69,0,0-.57,.93-1.49,2.59-.09,.17-.26,.26-.44,.26Z" fill="#231f20"></path>
    <path d="M557.45,300.75c-.06,0-.12-.01-.18-.03-1.88-.71-3.73-1.44-5.52-2.18-.25-.11-.38-.4-.27-.65,.11-.26,.4-.37,.65-.27,1.77,.74,3.62,1.47,5.48,2.17,.26,.1,.39,.39,.29,.64-.08,.2-.27,.32-.47,.32Zm-10.92-4.54c-.07,0-.14-.01-.21-.05-1.82-.84-3.62-1.71-5.34-2.58-.25-.12-.34-.43-.22-.67,.13-.25,.43-.34,.67-.22,1.71,.87,3.5,1.74,5.3,2.57,.25,.12,.36,.41,.25,.66-.08,.18-.27,.29-.45,.29Zm-10.53-5.38c-.08,0-.17-.02-.25-.06-1.74-.98-3.45-2.01-5.09-3.05-.23-.15-.3-.46-.16-.69,.15-.23,.46-.3,.69-.16,1.63,1.03,3.33,2.05,5.05,3.02,.24,.14,.33,.44,.19,.68-.09,.16-.26,.25-.43,.25Zm-9.99-6.32c-.1,0-.2-.03-.29-.09-1.64-1.16-3.24-2.36-4.75-3.57-.22-.17-.25-.49-.08-.7,.17-.22,.49-.25,.7-.08,1.5,1.19,3.08,2.39,4.7,3.54,.23,.16,.28,.47,.12,.7-.1,.14-.25,.21-.41,.21Zm-9.23-7.38c-.12,0-.24-.04-.34-.13-1.48-1.34-2.91-2.73-4.27-4.14-.19-.2-.19-.52,.01-.71,.2-.19,.52-.19,.71,.01,1.34,1.39,2.76,2.76,4.22,4.09,.2,.19,.22,.5,.03,.71-.1,.11-.23,.16-.37,.16Zm-8.2-8.51c-.14,0-.29-.06-.38-.18-1.28-1.53-2.5-3.11-3.64-4.7-.16-.22-.11-.54,.12-.7,.22-.16,.54-.11,.7,.12,1.12,1.57,2.33,3.13,3.6,4.64,.18,.21,.15,.53-.06,.7-.09,.08-.21,.12-.32,.12Zm-6.87-9.61c-.17,0-.33-.09-.43-.24-1.02-1.69-1.99-3.45-2.87-5.21-.12-.25-.02-.55,.22-.67,.25-.12,.55-.02,.67,.22,.87,1.74,1.82,3.47,2.83,5.14,.14,.24,.07,.54-.17,.69-.08,.05-.17,.07-.26,.07Zm-5.27-10.57c-.2,0-.38-.12-.46-.31-.73-1.82-1.41-3.71-2-5.61-.08-.26,.06-.54,.33-.63,.27-.08,.54,.06,.63,.33,.58,1.87,1.25,3.73,1.97,5.53,.1,.26-.02,.55-.28,.65-.06,.02-.12,.04-.19,.04Zm-3.53-11.28c-.23,0-.43-.16-.49-.39-.44-1.91-.81-3.87-1.12-5.85-.04-.27,.15-.53,.42-.57,.27-.04,.53,.15,.57,.42,.3,1.95,.67,3.89,1.1,5.77,.06,.27-.11,.54-.38,.6-.04,0-.08,.01-.11,.01Zm-1.79-11.68c-.26,0-.48-.2-.5-.46-.16-1.95-.26-3.95-.29-5.94,0-.28,.22-.5,.49-.51,.27,.01,.5,.22,.51,.49,.03,1.97,.13,3.95,.28,5.88,.02,.28-.18,.52-.46,.54-.01,0-.03,0-.04,0Zm-.19-11.82s-.01,0-.02,0c-.28-.01-.49-.25-.48-.52,.09-1.94,.24-3.94,.44-5.93,.03-.28,.28-.47,.55-.45,.27,.03,.47,.27,.45,.55-.2,1.97-.35,3.95-.44,5.87-.01,.27-.23,.48-.5,.48Zm1.21-11.77s-.05,0-.08,0c-.27-.04-.46-.3-.42-.57,.3-1.93,.67-3.9,1.07-5.84,.06-.27,.32-.44,.59-.39,.27,.06,.44,.32,.39,.59-.4,1.93-.76,3.88-1.06,5.8-.04,.25-.25,.42-.49,.42Zm2.41-11.58s-.08,0-.12-.02c-.27-.07-.43-.34-.36-.61,.49-1.89,1.03-3.81,1.61-5.72,.08-.26,.36-.41,.62-.33,.26,.08,.41,.36,.33,.62-.58,1.89-1.12,3.8-1.6,5.68-.06,.23-.26,.38-.48,.38Zm3.44-11.32c-.05,0-.11,0-.17-.03-.26-.09-.4-.38-.31-.64,.65-1.85,1.35-3.73,2.08-5.56,.1-.26,.39-.38,.65-.28s.38,.39,.28,.65c-.72,1.83-1.42,3.69-2.06,5.53-.07,.21-.27,.33-.47,.33Zm4.36-11c-.07,0-.14-.01-.2-.04-.25-.11-.37-.41-.25-.66,.8-1.82,1.65-3.63,2.51-5.38,.12-.25,.42-.35,.67-.23,.25,.12,.35,.42,.23,.67-.85,1.74-1.69,3.54-2.49,5.35-.08,.19-.27,.3-.46,.3Z" fill="#231f20"></path>
    <path d="M565.96,303.72c-.05,0-.1,0-.15-.02-.97-.31-1.93-.63-2.87-.95-.26-.09-.4-.37-.31-.63,.09-.26,.37-.4,.63-.31,.94,.32,1.89,.64,2.86,.95,.26,.08,.41,.37,.32,.63-.07,.21-.26,.35-.48,.35Z" fill="#231f20"></path>
  </g>
  <g>
    <g>
      <rect x="200.59" y="640.42" width="11.07" height="6.04" fill="#231f20"></rect>
      <path d="M212.16,646.96h-12.07v-7.04h12.07v7.04Zm-11.07-1h10.07v-5.04h-10.07v5.04Z" fill="#231f20"></path>
    </g>
    <g>
      <ellipse cx="211.66" cy="651.49" rx="8.05" ry="9.56" fill="#231f20"></ellipse>
      <path d="M211.66,661.55c-4.72,0-8.55-4.51-8.55-10.06s3.84-10.06,8.55-10.06,8.55,4.51,8.55,10.06-3.84,10.06-8.55,10.06Zm0-19.12c-4.16,0-7.55,4.07-7.55,9.06s3.39,9.06,7.55,9.06,7.55-4.07,7.55-9.06-3.39-9.06-7.55-9.06Z" fill="#231f20"></path>
    </g>
    <g>
      <path d="M265.13,628.02s1.89,.31,1.89,6.86c0,0,2.52,6.54-4.03,6.04l-19.63-1.51-5.54,.5v-10.07l12.08-8.05,15.22,6.23Z" fill="#fff"></path>
      <path d="M263.68,641.45c-.23,0-.48,0-.73-.03l-19.63-1.51-6,.55v-10.88l12.52-8.35,15.43,6.31c.5,.13,2.22,1.03,2.24,7.25,.2,.55,1.1,3.39-.25,5.2-.72,.97-1.92,1.46-3.58,1.46Zm-20.36-2.54l19.71,1.51c1.67,.13,2.83-.22,3.43-1.03,1.14-1.53,.1-4.31,.09-4.34l-.03-.18c0-5.81-1.49-6.37-1.51-6.37l-.07-.02-14.97-6.13-11.64,7.76v9.25l4.99-.45Z" fill="#231f20"></path>
    </g>
    <g>
      <path d="M266.7,586.3s-.18,12.85-2.2,22.92c0,0,2.01,15.1,.5,19.63,0,0,0,4.53-8.56,2.01,0,0-11.58-2.52-18.62-1.01v-28.69l3.52-17.61,22.14-.5,3.2,3.25Z" fill="#84a1e5"></path>
      <path d="M260.91,632.12c-1.29,0-2.83-.26-4.6-.78-.08-.02-11.52-2.47-18.38-1l-.6,.13v-29.31l3.61-18.11,22.76-.52,3.5,3.56v.21c0,.13-.21,12.94-2.19,22.92,.17,1.33,1.94,15.17,.49,19.7-.02,.33-.19,1.45-1.29,2.28-.81,.6-1.91,.91-3.3,.91Zm-17.64-3.26c6.27,0,12.92,1.43,13.29,1.5,4.21,1.24,6.15,.71,7.04,.06,.89-.65,.91-1.55,.91-1.59l.03-.15c1.46-4.37-.5-19.25-.52-19.4v-.08s0-.08,0-.08c1.84-9.21,2.15-20.92,2.18-22.62l-2.9-2.95-21.53,.49-3.44,17.22v27.98c1.54-.27,3.23-.38,4.95-.38Z" fill="#231f20"></path>
    </g>
    <path d="M240.34,617.77c-.2,0-.39-.12-.46-.31-.1-.26,.02-.55,.28-.65,.33-.13,8.13-3.18,16.3-.41,.65,.22,1.37,.15,1.95-.21,.58-.35,.97-.94,1.06-1.61,.98-6.71,3.01-18.51,5.63-22.25,.16-.23,.47-.28,.7-.12,.23,.16,.28,.47,.12,.7-2.59,3.7-4.68,16.49-5.46,21.82-.14,.97-.7,1.81-1.53,2.32-.84,.52-1.86,.63-2.8,.31-7.81-2.65-15.53,.36-15.6,.39-.06,.02-.12,.04-.19,.04Z" fill="#231f20"></path>
    <g>
      <path d="M371.01,621c0,.17-.01,.34-.03,.49-.08,.84-.5,1.59-1.15,2.12-6.58,5.5-21.46,4.33-28.72,3.37-2.38-.32-4.72-.9-6.97-1.73-9.57-3.53-13.78-3.96-13.78-3.96-13.27-.81-19.98-1.77-23.35-2.48-2.08-.44-3.75-1.88-4.54-3.77h0c-.23-.54-.39-1.12-.46-1.72-1.13-9.22,4.94-26.24,4.94-26.24,0,0,16.88-9.07,16.88-10.08s15.1,11.07,15.1,11.07c7.61,12.69,18.42,19.58,25.38,22.94,2.96,1.43,6.09,2.43,9.3,3.14,6.43,1.42,7.45,4.76,7.41,6.84Z" fill="#84a1e5"></path>
      <path d="M352.66,628.3c-4.29,0-8.45-.41-11.62-.83-2.4-.32-4.78-.91-7.07-1.76-9.38-3.46-13.62-3.92-13.66-3.93-13.47-.82-20.17-1.81-23.4-2.49-2.09-.44-3.85-1.83-4.77-3.76h0l-.14-.3c-.25-.58-.42-1.21-.5-1.86-1.13-9.23,4.71-25.77,4.96-26.47l.06-.18,.17-.09c7.52-4.04,15.79-8.77,16.62-9.75v-.2l.31-.19c.33-.15,1.01-.49,15.6,11.18l.12,.13c7.39,12.32,17.76,19.17,25.16,22.75,2.75,1.33,5.76,2.34,9.19,3.1,6.88,1.52,7.84,5.25,7.8,7.34h0c0,.19-.02,.37-.03,.53-.09,.95-.56,1.82-1.33,2.46-4,3.34-10.89,4.31-17.49,4.31Zm-59.82-13.65l.09,.2c.74,1.78,2.31,3.08,4.19,3.47,3.21,.67,9.85,1.65,23.28,2.47,.19,.02,4.4,.47,13.92,3.99,2.23,.82,4.53,1.4,6.86,1.71,6.34,.84,21.78,2.22,28.33-3.25,.56-.47,.9-1.1,.97-1.79,.01-.14,.02-.29,.03-.45,.04-2.18-1.14-5.05-7.02-6.34-3.51-.78-6.59-1.82-9.41-3.18-7.51-3.63-18.03-10.57-25.54-23.05-4.92-3.94-12.87-10.1-14.5-10.89-.82,.86-4.05,3.12-16.69,9.91-.64,1.85-5.89,17.34-4.85,25.83,.06,.48,.18,.95,.35,1.39Z" fill="#231f20"></path>
    </g>
    <g>
      <path d="M374.66,627.87c.17,1.74-.62,3.46-2.1,4.39-4.14,2.62-10.43,2.62-10.43,2.62-25.16,1.51-45.29-6.54-45.29-6.54v4.03l-13.59-1.01c-12.08,0-14.09-4.03-14.09-4.03v-8.05c0-3.93,3.15-4.23,3.3-4.24h0c.79,1.89,2.47,3.33,4.54,3.77,3.37,.71,10.09,1.67,23.35,2.48,0,0,4.21,.42,13.78,3.96,2.28,.84,4.65,1.43,7.06,1.74,7.29,.96,22.08,2.09,28.63-3.38,.64-.54,1.07-1.29,1.15-2.12,.02-.15,.03-.32,.03-.49,2.63,1.37,3.43,4.59,3.65,6.87Z" fill="#fff"></path>
      <path d="M355.84,635.57c-19.52,0-35.1-5.27-38.5-6.51v3.84l-14.12-1.05h0c-12.21,0-14.41-4.12-14.5-4.3l-.05-.11v-8.17c0-4.44,3.73-4.73,3.77-4.74l.36-.02,.14,.33c.74,1.78,2.31,3.08,4.19,3.47,3.21,.67,9.85,1.65,23.28,2.47,.19,.02,4.4,.47,13.92,3.98,2.24,.83,4.58,1.4,6.95,1.72,6.32,.83,21.71,2.19,28.24-3.27,.56-.47,.9-1.1,.97-1.79,.01-.14,.02-.29,.03-.45l.02-.8,.71,.37c2.79,1.45,3.67,4.75,3.92,7.26h0c.19,1.94-.72,3.85-2.33,4.86-4.21,2.67-10.43,2.7-10.69,2.7-2.14,.13-4.24,.19-6.3,.19Zm-39.5-7.97l.69,.27c.2,.08,20.32,7.99,45.08,6.51,.09,0,6.23-.03,10.19-2.54,1.29-.82,2.02-2.36,1.87-3.92h0c-.2-2.04-.85-4.65-2.73-6.06-.16,.83-.6,1.58-1.28,2.14-6.59,5.5-21.01,4.55-29.01,3.49-2.45-.32-4.86-.92-7.17-1.77-9.38-3.46-13.61-3.92-13.66-3.93-13.47-.82-20.17-1.81-23.4-2.49-2.07-.44-3.82-1.81-4.74-3.71-.73,.16-2.51,.85-2.51,3.69v7.91c.39,.55,3.05,3.67,13.59,3.67l13.09,.97v-4.23Z" fill="#231f20"></path>
    </g>
    <path d="M347.61,613.39c-1.1,0-2.19-.21-3.21-.63-16.71-6.87-28.33-20.2-28.44-20.33-.18-.21-.16-.52,.05-.71,.21-.18,.52-.16,.71,.05,.11,.13,11.58,13.29,28.07,20.06,1.44,.59,3.03,.71,4.59,.35l5.61-1.29c.28-.06,.54,.11,.6,.38,.06,.27-.11,.54-.38,.6l-5.61,1.29c-.66,.15-1.32,.23-1.98,.23Z" fill="#231f20"></path>
    <g>
      <polygon points="274.24 255.87 273.02 262.25 266.01 258.94 262.99 254.41 267.02 250.88 275.07 254.91 274.24 255.87" fill="#fff"></polygon>
      <path d="M273.4,262.98l-7.72-3.65-3.34-5.01,4.61-4.03,8.93,4.46-1.16,1.34-1.31,6.89Zm-7.04-4.44l6.3,2.98,1.12-5.88,.5-.57-7.18-3.59-3.44,3.01,2.7,4.05Z" fill="#231f20"></path>
    </g>
    <g>
      <path d="M272.91,261.92s-4.6,23.66-6.51,34.75c0,0-6.43,.52-7.94-3.51,0,0-6.54,3.02-12.58-6.54,0,0-34.88-37.87-34.23-60.56,0-.11,0-.23,.01-.34,0,0-1.01-10.07,2.52-14.09,0,0-7.55-8.05,3.52-30.2,0,0-2.52-16.1,8.05-28.18,0,0,19.8-23.07,28.02-17.32l-7.39,43.49,24.16,56.37-6.04,18.12s-.5,1.51,1.43,3.64c1.18,1.3,3.29,2.83,6.98,4.37Z" fill="#f6991a"></path>
      <path d="M265.65,297.19c-1.77,0-5.95-.34-7.46-3.41-1.69,.5-7.47,1.42-12.73-6.9-1.38-1.48-34.96-38.21-34.31-60.84,0-.1,0-.23,.01-.35-.04-.34-.94-9.76,2.37-14.07-1.32-1.77-6.25-10.39,3.65-30.28-.22-1.74-1.84-16.96,8.19-28.43,.82-.95,20.19-23.34,28.69-17.4l.26,.18-7.42,43.66,24.17,56.41-6.1,18.3s-.35,1.3,1.33,3.14c1.36,1.5,3.65,2.93,6.8,4.25l.38,.16-.08,.4c-.05,.24-4.62,23.79-6.51,34.74l-.07,.38-.39,.03c-.05,0-.35,.03-.79,.03Zm-6.91-4.71l.19,.5c1.16,3.09,5.7,3.22,7.05,3.2,1.79-10.32,5.76-30.85,6.36-33.97-3.1-1.33-5.37-2.79-6.78-4.34-2.11-2.31-1.56-4.06-1.54-4.13l5.98-17.94-24.14-56.33,.02-.15,7.33-43.17c-7.92-4.76-26.9,17.18-27.1,17.41-10.3,11.77-7.96,27.62-7.94,27.78l.02,.16-.07,.14c-10.75,21.5-3.68,29.55-3.6,29.63l.3,.33-.29,.34c-3.34,3.82-2.4,13.61-2.4,13.71,0,.18,0,.28,0,.39-.64,22.24,33.75,59.84,34.1,60.22,5.77,9.12,11.75,6.54,12.01,6.43l.49-.22Z" fill="#231f20"></path>
    </g>
    <path d="M218.7,166.33c-.1,0-.21-.03-.3-.1-.22-.17-.27-.48-.1-.7,.12-.16,11.8-15.62,24.61-23.1,2.05-1.2,4.52-1.4,6.77-.56l1.35,.32c.27,.06,.43,.33,.37,.6-.06,.27-.33,.44-.6,.37l-1.41-.34c-2.02-.75-4.18-.58-5.97,.47-12.63,7.38-24.2,22.68-24.31,22.84-.1,.13-.25,.2-.4,.2Z" fill="#231f20"></path>
    <path d="M214.17,212.13s-.06,0-.09,0c-.27-.05-.45-.31-.4-.58,6.49-33.94,33.04-69.8,33.31-70.16,.17-.22,.48-.27,.7-.1,.22,.17,.27,.48,.1,.7-.27,.36-26.68,36.04-33.13,69.75-.05,.24-.26,.41-.49,.41Z" fill="#231f20"></path>
    <path d="M218.7,218.67s-.09,0-.14-.02c-.27-.08-.42-.36-.34-.62,5-16.99,22.54-43.16,22.71-43.42,.16-.23,.46-.29,.69-.14,.23,.15,.29,.47,.14,.69-.18,.26-17.63,26.3-22.58,43.14-.06,.22-.26,.36-.48,.36Z" fill="#231f20"></path>
    <path d="M260.47,260.95c-.09,0-.18-.02-.27-.08-23.37-14.8-33.27-27.31-36.44-32-1.25-1.84-1.49-4.18-.65-6.24,3.08-7.58,12.96-16.06,13.38-16.41,.21-.18,.53-.15,.7,.06,.18,.21,.15,.53-.06,.7-.1,.09-10.12,8.68-13.1,16.03-.71,1.76-.51,3.74,.55,5.31,3.14,4.64,12.94,17.01,36.15,31.71,.23,.15,.3,.46,.15,.69-.1,.15-.26,.23-.42,.23Z" fill="#231f20"></path>
    <path d="M240.21,230.67c-.75,0-1.5-.1-2.25-.29l-15.17-4.02c-.27-.07-.43-.34-.36-.61,.07-.27,.35-.43,.61-.36l15.17,4.02c1.97,.52,4.03,.25,5.8-.76l7.26-4.15c.24-.14,.54-.05,.68,.19,.14,.24,.05,.55-.19,.68l-7.26,4.15c-1.33,.76-2.81,1.15-4.31,1.15Z" fill="#231f20"></path>
    <g>
      <path d="M272.91,261.92s-4.6,23.66-6.51,34.75c0,0-6.43,.52-7.94-3.51,0,0-6.54,3.02-12.58-6.54,0,0-34.88-37.87-34.23-60.56,3.25,8.44,15.22,33.44,46.31,45.46,0,0,3.62-7.69,7.98-13.98,1.18,1.3,3.29,2.83,6.98,4.37Z" fill="#231f20"></path>
      <path d="M265.65,297.19c-1.77,0-5.95-.34-7.46-3.41-1.69,.5-7.47,1.42-12.73-6.9-1.38-1.48-34.96-38.21-34.31-60.84l.07-2.49,.9,2.32c2.89,7.51,14.71,32.87,45.59,45.01,.82-1.7,4.06-8.22,7.82-13.63l.36-.52,.42,.47c1.36,1.5,3.65,2.93,6.8,4.25l.38,.16-.08,.4c-.05,.24-4.62,23.79-6.51,34.74l-.07,.38-.39,.03c-.05,0-.35,.03-.79,.03Zm-6.91-4.71l.19,.5c1.16,3.09,5.7,3.22,7.05,3.2,1.79-10.32,5.76-30.85,6.36-33.97-2.79-1.2-4.92-2.51-6.34-3.89-4.13,6.08-7.56,13.33-7.59,13.4l-.2,.42-.43-.17c-28.69-11.09-41.27-33.46-45.55-43.2,1.95,22.44,33.68,57.13,34.02,57.49,5.77,9.12,11.75,6.54,12.01,6.43l.49-.22Z" fill="#231f20"></path>
    </g>
    <g>
      <path d="M376.23,269v39.26c-3.02,85.56-20.63,150.48-20.63,150.48l-19.34,86.28c-.18,.82-.19,1.68-.04,2.51,1.09,5.92-.24,9.16-1.52,10.82-.96,1.24-1.43,2.79-1.27,4.35,.63,6.31-2.49,8.27-2.49,8.27-6.88,.94-13.58,.71-17.65,.4-2.24-.17-4.46-.62-6.58-1.36-7.15-2.47-9.99-2.06-9.99-2.06-2.31-8.59-.94-13.27,.28-15.48,.77-1.4,1.08-3.01,.96-4.6-2.54-32.98,8.83-85.1,8.83-85.1l2.52-53.85-34.07,135.8c-.38,1.5-.58,3.03-.55,4.58,.25,11.02-5.14,18.65-5.14,18.65-14.09,6.54-31.2-2.52-31.2-2.52l2.52-62.91,13.09-122.8c6.54-60.39,20.31-123.86,20.31-123.86l57.2-16.05,36.24,6.04,7.51,8.45,1.04,14.7Z" fill="#f6c34c"></path>
      <path d="M320.42,572.14c-2.73,0-5.19-.12-7.18-.27-2.32-.18-4.58-.64-6.71-1.38-6.89-2.38-9.73-2.04-9.76-2.04l-.43,.06-.12-.42c-2.28-8.48-1.08-13.3,.32-15.85,.71-1.28,1.02-2.78,.9-4.32-2.52-32.67,8.72-84.73,8.84-85.25l2.27-48.77-32.86,130.95c-.38,1.53-.56,3.03-.53,4.44,.25,11.06-5,18.64-5.23,18.95l-.08,.11-.12,.06c-14.15,6.57-31.47-2.44-31.65-2.53l-.28-.15,2.53-63.22,13.09-122.83c6.47-59.73,20.18-123.27,20.32-123.91l.06-.29,.29-.08,57.31-16.08,.11,.02,36.41,6.07,7.74,8.71v.17s1.06,14.74,1.06,14.74v39.26c-2.99,84.65-20.47,149.96-20.65,150.61l-19.33,86.26c-.17,.74-.18,1.52-.03,2.31,1.12,6.08-.26,9.46-1.62,11.22-.9,1.16-1.31,2.58-1.17,3.99,.66,6.55-2.59,8.65-2.72,8.74l-.2,.07c-3.69,.5-7.33,.68-10.58,.68Zm-23.16-4.72c1.2,0,4.19,.25,9.6,2.12,2.05,.71,4.22,1.16,6.46,1.33,4.27,.32,10.75,.52,17.42-.38,.46-.35,2.72-2.34,2.18-7.74-.17-1.67,.32-3.34,1.37-4.7,1.23-1.6,2.48-4.71,1.43-10.43-.17-.92-.16-1.83,.04-2.71l19.34-86.28c.18-.67,17.64-65.87,20.62-150.39v-39.22l-1.03-14.51-7.28-8.19-35.95-5.99-56.8,15.94c-1.02,4.78-14,65.92-20.24,123.51l-13.09,122.8-2.5,62.55c2.25,1.11,17.65,8.23,30.35,2.42,.64-.96,5.2-8.23,4.97-18.25-.03-1.5,.16-3.09,.56-4.71l34.07-135.8,.98,.15-2.52,53.85c-.12,.6-11.34,52.51-8.83,85.04,.13,1.74-.22,3.43-1.02,4.88-1.06,1.93-2.5,6.38-.34,14.71,.05,0,.11,0,.17,0Z" fill="#231f20"></path>
    </g>
    <g>
      <polygon points="318.35 108.46 315.33 246.86 379.25 262.46 379.75 194.52 368.68 133.62 358.11 118.02 343.52 104.93 318.35 108.46" fill="#fff"></polygon>
      <path d="M379.74,263.09l-64.92-15.85,3.04-139.23,25.82-3.61,14.85,13.33,10.65,15.79,11.07,60.9-.5,68.67Zm-63.9-16.63l62.91,15.36,.5-67.31-11.04-60.7-10.48-15.46-14.38-12.89-24.51,3.43-3,137.57Z" fill="#231f20"></path>
    </g>
    <g>
      <path d="M313.41,83.12s5.44,13.76-7.14,18.8c0,0,13.03,9.55,25.77,15.75,2.76,1.34,5.95,1.7,8.88,.78,3.28-1.02,6.44-3.61,5.11-9.99,0,0-1.01-9.06-5.03-16.1l-21.14-14.09h-11.58l5.13,4.86Z" fill="#f2b3c1"></path>
      <path d="M337.52,119.46c-1.92,0-3.87-.45-5.7-1.34-12.64-6.15-25.72-15.7-25.85-15.8l-.73-.53,.84-.33c11.56-4.62,7.4-16.72,6.9-18.05l-5.96-5.64h12.98l21.36,14.24,.06,.1c4.03,7.05,5.08,16.21,5.1,16.3,1.43,6.83-2.18,9.5-5.46,10.52-1.15,.36-2.34,.54-3.55,.54Zm-30.24-17.43c2.89,2.07,14.11,9.9,24.98,15.19,2.75,1.34,5.78,1.61,8.51,.75,4.19-1.31,5.8-4.48,4.77-9.41-.02-.14-1.04-9-4.92-15.86l-20.91-13.94h-10.17l4.34,4.17c.05,.14,5.24,13.67-6.6,19.09Z" fill="#231f20"></path>
    </g>
    <g>
      <path d="M301.71,96.92c.18,.68,1.07,2.14,4.56,5,0,0,6.1,4.5,11.97,8.1,2.12,1.3,3.54,3.51,3.8,5.99,.48,4.58,.93,13.8,.34,31.71l-.31,12.55c-.13,5.04,.35,10.07,1.42,14.99l.2,.91c.47,2.16,.6,4.38,.38,6.57l-2.18,21.85s.49,33.51,5.75,61.41c.14,.74-.48,1.39-1.22,1.28l-5.35-.76c-2.28-.33-4.61,.04-6.67,1.07-4.04,2.03-11.16,5.02-14.65,2.93l-29.41-16.88c-1.26-.72-2.76-.98-4.17-.61-.48,.13-.95,.32-1.35,.63-.08,.06-.19-.02-.15-.12,.77-2.07,4.55-12.34,5.9-17.75,0,0-16.1-3.02-20.63-13.09,0,0-16.61-10.07-13.09-28.18,0,0,.85-5.52,3.72-11.89,.52-1.16,.84-2.41,.9-3.68l.32-6.64c.06-1.33,.28-2.64,.64-3.92,1.84-6.44,8.15-27.42,16.56-43.83,0,0,8.05-22.14,31.71-19.12,0,0,3.75-7.98,10.35-8.98,.31-.05,.6,.15,.69,.46Z" fill="#84a1e5"></path>
      <path d="M302.8,271.73c-1.27,0-2.41-.23-3.33-.79l-29.41-16.87c-1.19-.68-2.57-.89-3.79-.56-.47,.12-.87,.31-1.18,.54-.22,.16-.51,.17-.72,0-.22-.16-.3-.44-.2-.69,.72-1.95,4.31-11.68,5.76-17.19-2.86-.62-16.17-3.96-20.41-13.13-1.59-1.03-16.56-11.25-13.18-28.62,0-.04,.89-5.65,3.76-12,.51-1.14,.8-2.31,.86-3.5l.32-6.64c.06-1.36,.29-2.72,.66-4.03,1.75-6.13,8.13-27.41,16.6-43.92,.06-.17,8.36-22.21,31.86-19.44,.8-1.56,4.48-8.01,10.57-8.93,.57-.09,1.1,.27,1.24,.82h0c.11,.44,.77,1.78,4.39,4.74,.04,.03,6.13,4.52,11.91,8.06,2.25,1.38,3.76,3.76,4.03,6.36,.48,4.61,.93,13.87,.35,31.78l-.31,12.55c-.12,4.99,.35,9.99,1.41,14.87l.2,.91c.48,2.21,.61,4.48,.38,6.73l-2.18,21.85c0,.28,.55,33.73,5.75,61.27,.1,.51-.05,1.02-.41,1.39-.36,.37-.85,.55-1.37,.47l-5.35-.76c-2.21-.31-4.41,.04-6.37,1.02-3.66,1.84-8.24,3.7-11.81,3.7Zm-35.36-19.37c1.06,0,2.15,.29,3.12,.85l29.41,16.88c3.31,1.99,10.3-.99,14.18-2.94,2.14-1.08,4.55-1.47,6.96-1.12l5.35,.76c.2,.03,.38-.04,.51-.17,.13-.14,.19-.33,.15-.52-5.21-27.62-5.75-61.16-5.76-61.5l2.19-21.9c.21-2.15,.09-4.31-.37-6.42l-.2-.91c-1.08-4.96-1.56-10.04-1.43-15.11l.31-12.55c.59-17.85,.14-27.06-.34-31.64-.24-2.29-1.57-4.39-3.56-5.61-5.82-3.57-11.94-8.08-12-8.13-2.85-2.33-4.44-4.1-4.75-5.27h0c-.02-.06-.07-.09-.13-.09-6.26,.95-9.94,8.62-9.98,8.7l-.16,.33-.36-.05c-22.96-2.93-31.09,18.58-31.17,18.8-8.45,16.49-14.8,37.69-16.55,43.8-.35,1.24-.56,2.52-.62,3.8l-.32,6.64c-.06,1.31-.38,2.61-.95,3.86-2.81,6.22-3.67,11.7-3.68,11.76-3.42,17.57,12.69,27.58,12.85,27.68l.13,.08,.06,.14c4.37,9.71,20.11,12.77,20.27,12.8l.52,.1-.13,.51c-1.21,4.82-4.33,13.49-5.55,16.8,.17-.07,.35-.12,.54-.17,.46-.12,.94-.18,1.43-.18Z" fill="#231f20"></path>
    </g>
    <g>
      <path d="M301.02,96.46s6.5-.46,10.91,1.49c0,0-2.64,2.96-5.66,3.96,0,0-3.96-3.36-5.25-5.46Z" fill="#231f20"></path>
      <path d="M306.16,102.48l-.21-.18c-.16-.14-4.03-3.44-5.35-5.57l-.43-.7,.82-.06c.27-.02,6.68-.44,11.15,1.53l.63,.28-.46,.51c-.11,.12-2.76,3.07-5.88,4.1l-.27,.09Zm-4.2-5.56c1.31,1.68,3.69,3.79,4.42,4.42,2.01-.75,3.83-2.38,4.68-3.21-3.21-1.19-7.3-1.25-9.1-1.21Z" fill="#231f20"></path>
    </g>
    <g>
      <path d="M290.67,105.44s8.56,14.09,13.09,18.12l7.71-7.71c1.19-1.19,2.79-1.86,4.47-1.86l5.47-.02s-.26-1.88-3.17-3.95c0,0-9.45-6.09-11.97-8.1,0,0-3.96-3.36-5.25-5.46,0,0-5.82,.42-10.35,8.98Z" fill="#f6c34c"></path>
      <path d="M303.78,124.24l-.35-.31c-4.53-4.03-12.83-17.65-13.18-18.23l-.15-.24,.13-.25c4.61-8.7,10.51-9.23,10.76-9.24l.3-.02,.16,.26c1.24,2,5.11,5.3,5.15,5.34,2.46,1.96,11.82,8,11.91,8.06,3.07,2.18,3.38,4.21,3.4,4.3l.08,.57-6.04,.02c-1.56,0-3.02,.61-4.12,1.71l-8.04,8.04Zm-12.53-18.82c1.12,1.83,8.33,13.45,12.5,17.44l7.37-7.37c1.29-1.29,3-2,4.82-2.01l4.78-.02c-.3-.66-1.03-1.81-2.77-3.04-.37-.24-9.48-6.11-11.99-8.12-.17-.14-3.72-3.17-5.18-5.3-1.17,.22-5.79,1.52-9.53,8.42Z" fill="#231f20"></path>
    </g>
    <g>
      <path d="M265.51,109.97s12.58-9.56,14.59,16.1c0,0,1.51,26.17-1.01,45.8,0,0-2.03,12.58,8.56,12.58,1.01,0,11.07,2.01,11.58-21.64,0,0,2.2-38.77-8.5-52.88-2.18-2.88-5.5-4.68-9.08-5.11-4.31-.51-12.22-.55-16.14,5.14Z" fill="#f6991a"></path>
      <path d="M288.6,184.99c-.32,0-.58-.02-.76-.03-.08,0-.15-.01-.19-.01-2.94,0-5.23-.94-6.81-2.79-3.25-3.82-2.29-10.11-2.24-10.37,2.48-19.34,1.02-45.43,1-45.69-.74-9.41-3.06-15.25-6.71-16.89-3.45-1.55-7.05,1.13-7.09,1.15l-2.46,1.86,1.75-2.54c4.05-5.89,12.14-5.89,16.61-5.36,3.77,.45,7.2,2.38,9.42,5.3,10.69,14.09,8.69,51.62,8.6,53.21-.21,9.99-2.14,16.73-5.74,20.02-2.05,1.87-4.16,2.14-5.38,2.14Zm-18.03-77.27c.88,0,1.8,.16,2.73,.58,4.06,1.82,6.52,7.79,7.3,17.74,.02,.27,1.48,26.45-1.01,45.9-.01,.08-.94,6.12,2.02,9.58,1.38,1.62,3.41,2.43,6.04,2.43,.06,0,.15,0,.26,.01,.86,.06,3.12,.22,5.39-1.85,3.34-3.05,5.21-9.73,5.42-19.32,.02-.4,2.06-38.77-8.4-52.57-2.05-2.71-5.24-4.5-8.74-4.91-3.64-.43-9.8-.51-13.85,2.92,.82-.3,1.8-.53,2.84-.53Z" fill="#231f20"></path>
    </g>
    <g>
      <path d="M265.51,109.97s-5.1,4.82-7.08,15.49c0,0,3.56-10.39,14.38-16.97,0,0-2.26-1.55-7.3,1.47Z" fill="#231f20"></path>
      <path d="M258.9,125.62l-.96-.25c1.98-10.71,7.02-15.57,7.23-15.77l.09-.06c5.25-3.15,7.73-1.53,7.84-1.46l.64,.44-.66,.4c-10.53,6.4-14.13,16.6-14.17,16.7Zm6.92-15.26c-.38,.38-3.62,3.78-5.76,10.6,2.03-3.51,5.68-8.47,11.58-12.32-1.02-.14-2.92,0-5.81,1.72Z" fill="#231f20"></path>
    </g>
    <g>
      <path d="M283.88,185.42l-.25,47.85s.93,15.41,10.45,21.04c.63,.37,1.44,.21,1.9-.35l2.8-3.42c.51-.62,.44-1.53-.16-2.06-2.5-2.23-8.34-8.64-7.95-19.74l.11-42.89-6.9-.43Z" fill="#f6991a"></path>
      <path d="M294.81,255.01c-.34,0-.68-.09-.99-.27-9.63-5.7-10.66-20.8-10.7-21.44l.25-48.41,7.9,.49-.11,43.36c-.39,10.88,5.31,17.16,7.78,19.36,.8,.71,.89,1.92,.22,2.75l-2.8,3.42c-.39,.48-.97,.73-1.56,.73Zm-10.44-69.06l-.25,47.32c0,.12,1.03,15.18,10.21,20.61,.41,.24,.95,.14,1.26-.24l2.8-3.42c.34-.41,.29-1.02-.11-1.37-2.57-2.29-8.52-8.84-8.12-20.13l.11-42.4-5.9-.37Z" fill="#231f20"></path>
    </g>
    <path d="M277.59,194.64c-.17,0-.33-.08-.42-.23-9.27-14.53-28.01-12-28.2-11.98-.28,.04-.53-.15-.57-.42-.04-.27,.15-.53,.42-.57,.2-.03,19.57-2.64,29.19,12.43,.15,.23,.08,.54-.15,.69-.08,.05-.18,.08-.27,.08Z" fill="#231f20"></path>
    <path d="M272.91,189.28c-.15,0-.31-.07-.4-.21-4.08-5.61-9.75-9.71-9.8-9.75-.22-.16-.28-.47-.11-.7,.16-.22,.47-.27,.7-.11,.06,.04,5.85,4.24,10.03,9.97,.16,.22,.11,.54-.11,.7-.09,.06-.19,.1-.29,.1Z" fill="#231f20"></path>
    <g>
      <path d="M345.48,104.98l24.7,21.1s14.59,8.56,19.12,24.66l9.59,33.08c.31,1.08,.39,2.22,.21,3.33l-11.31,72.8,2.01,9.05s0,.01,0,.01c-.22,.02-4.6,.46-7.54-1.01,0,0,0,0,0,0l-6.04,1.01-6.04-96.13-6.04-13.09s-4.24-37.67-17.72-50.29l-.94-4.52Z" fill="#84a1e5"></path>
      <path d="M375.76,269.59l-.04-.55-6.03-96.03-6.04-13.15c-.04-.38-4.38-37.64-17.57-49.98l-.12-.11-1.27-6.11,25.82,22.04c.08,.04,14.75,8.79,19.28,24.91l9.59,33.08c.33,1.14,.41,2.37,.23,3.55l-11.3,72.7,2.04,9.19-.29,.37-.22,.02c-.17,.02-4.57,.47-7.65-.99l-6.43,1.07Zm6.58-2.11l.15,.07c2.26,1.13,5.44,1.08,6.71,1l-1.91-8.59v-.09s11.33-72.8,11.33-72.8c.16-1.03,.09-2.11-.2-3.11l-9.59-33.08c-4.42-15.72-18.75-24.28-18.9-24.37l-23.66-20.2,.61,2.94c13.19,12.53,17.47,47.98,17.75,50.41l6.05,13.19,6,95.57,5.65-.94Z" fill="#231f20"></path>
    </g>
    <g>
      <path d="M364.2,159.54c1.93-10.69-.55-34.48-.55-34.48,3.04,1.35,7.66,5.41,10.37,7.95,.41,.39,1.05-.12,.76-.61-9.4-16.4-29.65-29.81-29.65-29.81l1.29,6.9s7.44,5.93,13.09,26.6c0,0,3.06,12.4,4.1,20.06l.5,3.38s.08,.05,.08,0Z" fill="#f6c34c"></path>
      <path d="M364.15,160.08h-.42s-.1-.47-.1-.47l-.5-3.38c-1.03-7.55-4.06-19.89-4.09-20.01-5.52-20.21-12.84-26.27-12.91-26.33l-.14-.12-1.55-8.25,.99,.65c.2,.13,20.46,13.66,29.81,29.97,.25,.44,.15,.96-.25,1.27-.4,.31-.93,.29-1.29-.05-2.32-2.16-6.45-5.83-9.45-7.46,.44,4.5,2.18,24.13,.46,33.72h0s-.08,.42-.08,.42l-.46,.02Zm-17.26-50.84c1.11,.97,7.85,7.49,13.11,26.74,.03,.14,3.08,12.53,4.11,20.12l.02,.13c1.04-11.45-.95-30.89-.98-31.11l-.09-.86,.79,.35c2.99,1.33,7.36,5.1,10.51,8.04-8.06-14.04-24.34-26.02-28.51-28.95l1.04,5.54Z" fill="#231f20"></path>
    </g>
    <path d="M381.26,166.33c-.25,0-.46-.18-.5-.43-1.01-7.57,1.43-15.48,1.53-15.82,.08-.26,.36-.41,.63-.33,.26,.08,.41,.36,.33,.63-.03,.08-2.47,8.04-1.49,15.39,.04,.27-.16,.52-.43,.56-.02,0-.04,0-.07,0Z" fill="#231f20"></path>
    <g>
      <path d="M476.88,199.05l-42.27-5.03-64.85-38.61c-.65-.39-1.48-.31-2.05,.19-6.98,6.1-49.61,45.41-59.31,103.33-.22,1.3,1.36,2.13,2.31,1.21l8.43-8.15c2.34-2.27,5.64-3.27,8.85-2.7l59.81,10.66,19.68-.44c1.79-.04,3.49,.72,4.65,2.08,3.21,3.77,11.16,11.71,25.04,17.3,.28,.11,.6,.07,.83-.12,5.16-4.17,61.88-50.26,86.48-81.47,.09-.11,.02-.27-.13-.28-2.78-.17-22.75-1.23-47.48,2.03Z" fill="#fff"></path>
      <path d="M437.48,279.45c-.17,0-.34-.03-.5-.1-13.76-5.53-21.72-13.3-25.24-17.44-1.06-1.25-2.63-1.96-4.26-1.91l-19.68,.44-59.91-10.67c-3.04-.54-6.19,.42-8.41,2.56l-8.43,8.15c-.59,.57-1.45,.7-2.18,.31-.73-.38-1.11-1.15-.97-1.96,9.64-57.58,51.23-96.42,59.47-103.63,.74-.64,1.79-.74,2.63-.24l64.76,38.56,42.11,5.01c24.94-3.29,45.28-2.17,47.52-2.03,.25,.01,.47,.17,.57,.4,.1,.23,.07,.5-.09,.69-24.48,31.06-80.28,76.47-86.56,81.55-.24,.19-.54,.29-.84,.29Zm-29.87-20.44c1.89,0,3.67,.82,4.9,2.26,3.46,4.07,11.29,11.7,24.85,17.16,.11,.04,.24,.03,.33-.05,6.24-5.04,61.4-49.93,86.02-80.9-4.16-.22-23.44-1.01-46.76,2.07h-.06s-.06,0-.06,0l-42.38-5.05-.09-.05-64.85-38.61c-.47-.28-1.06-.22-1.46,.13-8.2,7.16-49.57,45.8-59.15,103.04-.08,.45,.18,.77,.45,.91,.27,.14,.68,.18,1.02-.14l8.43-8.15c2.45-2.37,5.92-3.43,9.28-2.83l59.81,10.66,19.58-.45s.1,0,.14,0Z" fill="#231f20"></path>
    </g>
    <g>
      <path d="M518.36,200.87c-7.97,8.48-20.89,20.67-34.11,32.76l-.3,.27c-7.55,6.89-15.18,13.74-22.03,19.83-12.41,11.04-22.25,19.59-24.38,21.44-.26,.22-.62,.26-.93,.1-13.51-7.16-20.55-13.59-23.65-16.94-1.42-1.55-3.46-2.37-5.56-2.28l-19.04,.76c-1.71,.07-3.42-.07-5.1-.39l-53.18-10.28c-2.7-.52-5.49-.02-7.83,1.4l-10.42,6.33s-.02,0-.02-.01c.12-.43,1.77-6.26,5.1-15.06,6.18-16.3,18.14-42.77,36.91-63.92,3.96-4.46,8.22-8.69,12.8-12.53,.53-.45,1.07-.9,1.62-1.33,.56-.46,1.35-.51,1.98-.15l61.84,35.95c1.34,.78,2.85,1.21,4.4,1.27,5.1,.2,10.36,.5,15.76,.92,9.21,.71,17.98,1.71,26.27,2.89,.6,.09,1.21,.12,1.83,.1l10.45-.4,27.44-1.06c.16,0,.26,.19,.15,.3Z" fill="#f1f2f2"></path>
      <path d="M437.01,275.87c-.21,0-.43-.05-.62-.16-13.66-7.24-20.77-13.78-23.78-17.04-1.32-1.43-3.21-2.2-5.18-2.12l-19.04,.76c-1.74,.07-3.49-.07-5.21-.4l-53.18-10.28c-2.58-.5-5.23-.02-7.48,1.34l-10.69,6.49-.51-.32v-.35s.01-.07,.01-.07c.3-1.07,1.96-6.77,5.12-15.1,6.75-17.82,18.65-43.4,37-64.07,4.15-4.68,8.48-8.91,12.86-12.58,.53-.45,1.08-.9,1.62-1.34,.71-.58,1.74-.66,2.54-.19l61.84,35.95c1.26,.73,2.7,1.15,4.17,1.21,5.21,.21,10.52,.52,15.78,.92,8.76,.68,17.61,1.65,26.3,2.89,.59,.08,1.17,.11,1.74,.09l37.89-1.46c.29-.02,.54,.15,.65,.41,.11,.25,.06,.54-.13,.74-7,7.46-18.49,18.48-34.13,32.78l-.3,.27c-6.82,6.23-14.23,12.9-22.03,19.84-7.86,6.99-15.94,14.1-24.04,21.14l-.34,.3c-.25,.21-.55,.32-.87,.32Zm-29.32-20.32c2.16,0,4.2,.88,5.65,2.45,2.97,3.21,9.99,9.66,23.52,16.83,.12,.06,.27,.05,.37-.04l.34-.3c8.09-7.04,16.18-14.15,24.03-21.14,7.8-6.93,15.21-13.61,22.02-19.83l.3-.27c15.23-13.92,26.51-24.74,33.54-32.16l-37.12,1.43c-.62,.03-1.27,0-1.92-.1-8.67-1.24-17.5-2.21-26.24-2.89-5.24-.41-10.54-.71-15.74-.92-1.63-.06-3.23-.53-4.63-1.34l-61.84-35.95c-.45-.26-1.02-.22-1.41,.1-.54,.44-1.08,.88-1.61,1.33-4.34,3.64-8.63,7.83-12.75,12.48-18.25,20.56-30.09,46.02-36.81,63.76-2.51,6.61-4.06,11.55-4.74,13.82l9.35-5.68c2.46-1.49,5.37-2.01,8.19-1.47l53.18,10.28c1.64,.31,3.33,.44,4.98,.38l19.04-.76c.1,0,.2,0,.3,0Z" fill="#231f20"></path>
    </g>
    <path d="M304.26,567.44c-.21,0-.4-.13-.47-.34-1.43-4.29,.14-6.49,.54-6.96,1.91-5.32,1.45-10.21,1.45-10.26,0-.04,0-.07,0-.11l7.05-59.39c4.97-25.85,3.53-90.87,3.52-91.52,0-.28,.21-.51,.49-.51,.3,.02,.5,.21,.51,.49,.01,.65,1.45,65.78-3.53,91.7l-7.03,59.3c.05,.6,.4,5.4-1.54,10.73-.02,.07-.06,.13-.12,.18-.07,.07-1.76,1.89-.38,6.03,.09,.26-.05,.55-.32,.63-.05,.02-.11,.03-.16,.03Zm.5-7.04h0Z" fill="#231f20"></path>
    <path d="M309.29,409.41c-.05,0-.1,0-.15-.02-.26-.08-.41-.37-.32-.63l24.16-74.99c.08-.26,.37-.41,.63-.32,.26,.08,.41,.37,.32,.63l-24.16,74.99c-.07,.21-.26,.35-.48,.35Z" fill="#231f20"></path>
    <path d="M341.5,314.29c-.12,0-.25-.04-.34-.13l-7.55-7.05c-.12-.12-.18-.29-.15-.45,2.97-16.85,2.02-30.44,2.01-30.58-.02-.28,.19-.52,.46-.54,.27-.02,.52,.19,.54,.46,0,.14,.97,13.7-1.97,30.56l7.35,6.86c.2,.19,.21,.5,.02,.71-.1,.11-.23,.16-.37,.16Z" fill="#231f20"></path>
    <path d="M339.49,319.83c-.07,0-.14-.01-.2-.04-.25-.11-.37-.41-.25-.66,7.43-16.84,10.5-51.83,10.53-52.18,.02-.28,.27-.48,.54-.46,.27,.02,.48,.27,.46,.54-.03,.35-3.11,35.51-10.61,52.5-.08,.19-.27,.3-.46,.3Z" fill="#231f20"></path>
    <g>
      <path d="M331.94,579.02c1.01,13.59-10.07,8.56-10.07,8.56-9.56-2.52-19.63-.5-19.63-.5-11.07,1.51-9.06-10.07-9.06-10.07,.5-7.55,3.52-9.06,3.52-9.06,0,0,2.84-.41,9.99,2.06,2.12,.74,4.34,1.19,6.58,1.36,4.07,.31,10.77,.54,17.65-.4,6.54-1.01,1.01,8.05,1.01,8.05Z" fill="#fff"></path>
      <path d="M326.1,588.99c-2.28,0-4.3-.9-4.43-.96-9.25-2.43-19.22-.49-19.32-.47-3.37,.46-5.91-.19-7.59-1.94-2.99-3.1-2.1-8.48-2.06-8.71,.51-7.69,3.66-9.35,3.79-9.42l.15-.05c.12-.02,3.05-.4,10.22,2.09,2.05,.71,4.22,1.16,6.46,1.33,4.3,.32,10.83,.52,17.54-.4,1.62-.25,2.75,.07,3.34,.95,1.42,2.13-1.17,6.73-1.75,7.72,.3,4.38-.62,7.34-2.74,8.82-1.11,.77-2.4,1.03-3.61,1.03Zm-14.87-3.17c3.27,0,7.06,.3,10.77,1.27,.12,.05,4.41,1.95,7.14,.05,1.83-1.28,2.6-4,2.3-8.08v-.16s.07-.14,.07-.14c1.18-1.93,2.73-5.48,1.86-6.78-.35-.53-1.14-.7-2.36-.51-6.81,.93-13.42,.74-17.76,.41-2.32-.18-4.58-.64-6.71-1.38-6.21-2.15-9.13-2.09-9.67-2.05-.42,.28-2.75,2.13-3.18,8.6-.02,.1-.85,5.16,1.79,7.9,1.45,1.5,3.7,2.05,6.7,1.64,.04,0,3.89-.76,9.05-.76Z" fill="#231f20"></path>
    </g>
    <g>
      <path d="M270.04,576.5c2.01,9.56-2.01,9.56-2.01,9.56-15.1,4.03-26.17,0-26.17,0-9.06-2.52-5.03-14.09-5.03-14.09-2.52-6.54,1.51-6.54,1.51-6.54,0,0,17.11,9.06,31.2,2.52,5.89,0,.5,8.56,.5,8.56Z" fill="#fff"></path>
      <path d="M254.58,588.34c-7.8,0-12.82-1.78-12.9-1.81-2.37-.66-4.12-2-5.15-3.98-2.14-4.08-.58-9.51-.24-10.57-.99-2.64-1.06-4.6-.21-5.84,.83-1.2,2.19-1.22,2.25-1.22h.12l.11,.06c.17,.09,17.06,8.86,30.76,2.5l.21-.05c1.42,0,2.39,.46,2.89,1.37,1.29,2.33-1.23,6.74-1.86,7.78,.88,4.31,.68,7.31-.62,8.9-.73,.9-1.58,1.04-1.84,1.06-5.02,1.33-9.62,1.78-13.52,1.78Zm-16.35-22.4c-.25,.03-.91,.16-1.33,.79-.45,.67-.75,2.1,.39,5.07l.07,.17-.06,.17c-.02,.06-2,5.9,.12,9.96,.9,1.72,2.44,2.9,4.57,3.49,.15,.05,11.15,3.93,25.91,0l.13-.02s.63-.03,1.18-.73c.75-.95,1.42-3.16,.35-8.23l-.04-.2,.11-.17c.85-1.36,2.87-5.25,1.94-6.94-.31-.55-.93-.83-1.91-.85-13.49,6.18-29.8-1.7-31.42-2.51Z" fill="#231f20"></path>
    </g>
    <g>
      <ellipse cx="131.64" cy="641.17" rx="6.54" ry="6.79" fill="#231f20"></ellipse>
      <path d="M131.64,648.47c-3.88,0-7.04-3.27-7.04-7.29s3.16-7.29,7.04-7.29,7.04,3.27,7.04,7.29-3.16,7.29-7.04,7.29Zm0-13.59c-3.33,0-6.04,2.82-6.04,6.29s2.71,6.29,6.04,6.29,6.04-2.82,6.04-6.29-2.71-6.29-6.04-6.29Z" fill="#231f20"></path>
    </g>
    <g>
      <ellipse cx="142.21" cy="640.17" rx="6.54" ry="6.79" fill="#231f20"></ellipse>
      <path d="M142.21,647.46c-3.88,0-7.04-3.27-7.04-7.29s3.16-7.29,7.04-7.29,7.04,3.27,7.04,7.29-3.16,7.29-7.04,7.29Zm0-13.59c-3.33,0-6.04,2.82-6.04,6.29s2.71,6.29,6.04,6.29,6.04-2.82,6.04-6.29-2.71-6.29-6.04-6.29Z" fill="#231f20"></path>
    </g>
    <g>
      <path d="M247.65,649.16c-1.44,2.92-4.34,6.07-9.82,3.33,0,0-.13,.15-.36,.39-4.06,4.1-11.01,2.58-13.11-2.8-.8-2.03-1.18-4.66-.11-7.66l.02-.05,2.7,.03c1.48,.02,2.85-.76,3.59-2.04,2.7-4.7,3.75-14.54,3.75-14.54l9.06-3.02s0,5.03-3.02,6.54c0,0,2.52,2.52,0,5.03,0,0,6.61,.37,8.22,7.06,.62,2.59,.26,5.33-.92,7.73Z" fill="#231f20"></path>
      <path d="M231.86,655.73c-.57,0-1.15-.06-1.73-.18-2.85-.59-5.19-2.56-6.25-5.28-1.03-2.64-1.07-5.33-.12-8.01l.12-.34,.38-.04,2.7,.03c1.31,.02,2.51-.67,3.15-1.79,2.61-4.56,3.68-14.25,3.69-14.35l.03-.32,10.02-3.34v.69c0,.21-.03,4.78-2.76,6.67,.76,1.04,1.38,2.8,.19,4.54,1.96,.39,6.45,1.88,7.76,7.31,.64,2.65,.3,5.51-.96,8.06h0c-1.12,2.28-2.61,3.74-4.42,4.35-1.69,.57-3.62,.36-5.73-.62-.04,.04-.08,.08-.13,.13-1.59,1.61-3.74,2.48-5.96,2.49Zm-7.25-12.84c-.77,2.35-.7,4.71,.2,7.02,.94,2.4,3,4.14,5.53,4.67,2.47,.51,5-.25,6.77-2.03,.21-.21,.32-.35,.33-.36l.25-.31,.36,.18c2,1,3.79,1.25,5.31,.74,1.55-.52,2.84-1.81,3.84-3.84,1.15-2.34,1.47-4.96,.88-7.39-1.51-6.24-7.51-6.66-7.77-6.68l-1.11-.06,.79-.79c2.09-2.09,.22-4.1,0-4.33l-.48-.49,.62-.31c2.07-1.04,2.58-4.02,2.7-5.39l-8.06,2.69c-.21,1.77-1.31,10.11-3.78,14.42-.81,1.42-2.33,2.29-3.98,2.29h-.05l-2.34-.02Z" fill="#231f20"></path>
    </g>
    <rect x="216.19" y="605.69" width="1" height="13.59" fill="#ed1c24"></rect>
    <rect x="237.83" y="603.93" width="1" height="13.59" fill="#ed1c24"></rect>
    <g>
      <path d="M374.67,223.08c-.68,1.01-1.89,1.55-3.12,1.5-4.59-.18-6.75-5.12-7.27-6.54-.09-.23-.3-.38-.54-.38h-3.72c-.42,0-.7,.43-.53,.82l.72,1.61c.56,1.26,.05,2.74-1.17,3.38-5.92,3.07-15.01,4.26-15.01,4.26-7.55,0-4.53-2.01-4.53-2.01,2.8-1.4,5.85-3.04,7.44-3.92,.97-.53,1.84-1.24,2.51-2.12,3.6-4.79-3.92-6.04-3.92-6.04-10.07-1.01-13.09,2.52-13.09,2.52-1.51,3.52,2.01,4.53,2.01,4.53,4.03,1.51,3.52,2.52,3.52,2.52,0,2.52-7.55,4.03-7.55,4.03,7.55,4.53-3.02,5.54-3.02,5.54-8.05,0-8.05,3.52-8.05,3.52-.44,2.67-2.07,2.59-2.44,2.53,6.18-16.3,18.14-42.77,36.91-63.92h.05c4.34,1.53,4.01,9.44,3.56,13.37-.15,1.29,.04,2.6,.56,3.78,1.48,3.35,.63,6.82,.04,8.49-.4,1.13-.52,2.34-.32,3.52,.78,4.79,4.94,5.55,4.94,5.55,9.06,2.52,6.04,7.55,6.04,7.55,6.92,2.2,6.95,4.5,5.99,5.92Z" fill="#fff"></path>
      <path d="M317.15,239.34c-.14,0-.24-.01-.31-.02l-.61-.09,.22-.58c6.75-17.82,18.65-43.4,37-64.07l.2-.22,.39,.09c4.58,1.6,4.4,9.39,3.89,13.89-.14,1.22,.04,2.44,.52,3.52,1.54,3.48,.69,7.04,.05,8.86-.37,1.06-.48,2.19-.3,3.28,.71,4.37,4.38,5.11,4.54,5.14,3.62,1,5.83,2.51,6.62,4.49,.54,1.35,.27,2.57,.01,3.25,3.57,1.2,5.57,2.54,6.11,4.08,.28,.8,.14,1.63-.39,2.42h0c-.75,1.12-2.09,1.77-3.55,1.73-4.89-.19-7.15-5.31-7.72-6.87l-3.8-.05-.53,.32,.46-.2,.72,1.61c.67,1.5,.05,3.27-1.4,4.02-5.93,3.08-14.8,4.26-15.17,4.31h-.04c-4.61,0-5.41-.74-5.61-1.39-.25-.82,.67-1.47,.78-1.54,3.01-1.51,6.23-3.26,7.48-3.94,.96-.53,1.76-1.2,2.35-1.99,.8-1.07,1.05-2,.75-2.77-.61-1.53-3.34-2.31-4.35-2.47-8.94-.89-12.16,1.9-12.58,2.3-.36,.89-.4,1.66-.1,2.3,.51,1.07,1.81,1.47,1.83,1.47,2.23,.83,3.5,1.66,3.82,2.48,.1,.26,.09,.46,.06,.59-.1,2.24-4.47,3.61-6.78,4.18,1.5,1.08,2.13,2.07,1.91,3.02-.48,2.14-5.21,2.7-6.15,2.78-7.41,0-7.6,3-7.6,3.03-.45,2.71-1.98,3.04-2.7,3.04Zm36.82-63.84c-17.86,20.22-29.56,45.12-36.29,62.75,.45-.19,.97-.71,1.19-2.03,0-.08,.09-3.94,8.55-3.94,2-.19,4.98-.95,5.22-2.01,.14-.63-.75-1.58-2.46-2.6l-1.11-.67,1.27-.25c2.97-.59,7.15-2.08,7.15-3.54v-.14c-.04-.15-.46-.88-3.2-1.91-.03,0-1.71-.5-2.41-1.98-.44-.93-.4-2.01,.11-3.21l.08-.13c.13-.15,3.3-3.71,13.51-2.69,.2,.03,4.19,.72,5.14,3.09,.45,1.12,.15,2.38-.88,3.74-.68,.9-1.58,1.66-2.67,2.26-1.25,.68-4.49,2.44-7.46,3.92-.14,.1-.32,.32-.32,.39h0s.34,.67,4.63,.67c.03,0,9-1.2,14.78-4.2,.98-.51,1.4-1.71,.95-2.73l-.72-1.61c-.15-.34-.12-.73,.08-1.03,.2-.31,.54-.49,.91-.49h3.72c.45,0,.85,.28,1.01,.7,.52,1.42,2.55,6.06,6.82,6.22,1.08,.04,2.12-.45,2.68-1.28h0c.36-.53,.45-1.03,.27-1.53-.31-.88-1.6-2.23-6-3.63l-.6-.19,.33-.54c.03-.05,.79-1.38,.17-2.93-.67-1.65-2.71-2.99-5.91-3.88h0s-4.47-.87-5.3-5.95c-.2-1.25-.08-2.55,.35-3.77,.59-1.68,1.38-4.96-.02-8.12-.55-1.25-.76-2.65-.6-4.04,.38-3.31,.83-11.04-2.96-12.72Z" fill="#231f20"></path>
    </g>
    <g>
      <path d="M496.63,222.16l-12.38,11.47-.3,.27-20.29,18.8c-.5,.46-1.09,.82-1.74,1.03h0c-9.03,3.24-15.69,1.54-17.66,.89-.52-.17-.97-.54-1.17-1.04-.88-2.12,3.09-3.71,3.09-3.71-3.02-5.54,2.01-8.56,2.01-8.56,6.54-4.53-3.02-9.56-3.02-9.56-6.54-3.99-11.64-3.78-14.84-2.86-2.59,.75-5.35,.45-7.75-.78-3.69-1.9-4.59-.39-4.59-.39-1.89,3.02,1.89,5.48,3.89,6.51,1.09,.56,2.05,1.38,2.69,2.43,1.67,2.72-.13,4.16-2.03,4.91-1.44,.56-3.01,.7-4.54,.53-8.17-.86-13.1,2.72-13.1,2.72-6.54,6.04-10.57,4.03-10.57,4.03-11.58-2.01-7.05-12.58-7.05-12.58,3.02-4.03-.5-7.05-.5-7.05-6.04-5.03,3.52-10.57,3.52-10.57,6.05-4.84-.83-7.74-3.8-8.7-.98-.32-1.94-.72-2.81-1.27-18.4-11.5-17.35-41.78-17.09-46.33,.53-.45,1.07-.9,1.62-1.33,.56-.46,1.35-.51,1.98-.15l61.84,35.95c1.34,.78,2.85,1.21,4.4,1.27,5.1,.2,10.36,.5,15.76,.92,9.21,.71,17.98,1.71,26.27,2.89,.6,.09,1.21,.12,1.83,.1l10.45-.4c.8,4.55-3.03,7-5.76,8.15-1.19,.5-1.62,1.95-.95,3.06,2.48,4.08-.13,5.59-1.68,6.11-.93,.31-1.68,1.07-1.89,2.03-.24,1.09,.35,1.76,1.06,2.16,.9,.51,2,.51,2.96,.13,9.66-3.87,12.11-1.1,12.11-1.1Z" fill="#fff"></path>
      <path d="M451.36,256.15c-3.64,0-6.21-.7-7.25-1.05-.69-.23-1.22-.71-1.48-1.32-.23-.54-.22-1.1,0-1.65,.51-1.21,2.05-2.1,2.86-2.49-2.68-5.59,2.39-8.71,2.44-8.75,1.41-.98,2.11-2.06,2.04-3.2-.18-2.9-4.99-5.47-5.04-5.49-6.45-3.93-11.42-3.7-14.46-2.82-2.69,.78-5.58,.49-8.11-.82-3.14-1.62-3.94-.57-3.95-.56-.42,.67-.53,1.33-.35,2,.47,1.72,2.74,3.12,4.05,3.79,1.23,.63,2.23,1.54,2.89,2.61,.7,1.15,.9,2.21,.59,3.14-.35,1.04-1.31,1.88-2.86,2.5-1.44,.56-3.05,.75-4.78,.57-7.87-.83-12.7,2.6-12.75,2.63-6.28,5.8-10.39,4.37-11.01,4.1-3.58-.64-6.04-2.14-7.31-4.48-2.11-3.88-.14-8.58-.05-8.78l.06-.1c2.69-3.59-.3-6.26-.43-6.37-1.57-1.3-2.29-2.78-2.16-4.38,.33-3.82,5.54-6.87,5.76-7,1.6-1.29,2.33-2.52,2.13-3.64-.4-2.18-4.21-3.63-5.83-4.15-1.12-.36-2.08-.79-2.92-1.32-18.42-11.52-17.66-40.99-17.32-46.78v-.21s.18-.14,.18-.14c.54-.46,1.08-.9,1.62-1.34,.71-.58,1.74-.66,2.54-.19l61.84,35.95c1.26,.73,2.7,1.15,4.17,1.21,5.21,.21,10.52,.52,15.78,.92,8.76,.68,17.61,1.65,26.3,2.89,.59,.08,1.17,.11,1.74,.09l10.89-.42,.08,.43c.65,3.7-1.51,6.78-6.06,8.69-.42,.18-.73,.52-.88,.96-.15,.46-.09,.96,.17,1.38,1.04,1.72,1.34,3.21,.89,4.44-.51,1.38-1.83,2.07-2.84,2.41-.79,.26-1.39,.9-1.55,1.66-.1,.44-.12,1.09,.82,1.62,.72,.41,1.67,.44,2.53,.1,9.87-3.95,12.56-1.09,12.67-.96l.32,.37-33.32,30.88c-.56,.52-1.2,.9-1.92,1.14-4.12,1.48-7.78,1.94-10.72,1.94Zm-17.01-28.31c2.98,0,6.72,.83,11.08,3.49,.19,.1,5.33,2.84,5.54,6.3,.09,1.51-.75,2.89-2.5,4.1-.21,.13-4.61,2.87-1.86,7.91l.27,.49-.52,.21c-.63,.26-2.38,1.14-2.81,2.18-.13,.3-.13,.59,0,.88,.14,.34,.46,.62,.87,.76,1.81,.6,8.4,2.32,17.33-.89,.59-.2,1.12-.51,1.57-.93l32.5-30.12c-1.03-.51-4.08-1.32-11.12,1.5-1.16,.46-2.39,.41-3.39-.16-1.08-.61-1.55-1.57-1.3-2.7,.24-1.1,1.09-2.02,2.22-2.4,.81-.27,1.85-.8,2.22-1.8,.34-.92,.07-2.13-.81-3.57-.41-.67-.5-1.47-.26-2.21,.23-.71,.76-1.28,1.44-1.57,2.79-1.17,5.95-3.35,5.53-7.17l-10,.38c-.62,.03-1.27,0-1.92-.1-8.67-1.24-17.5-2.21-26.24-2.89-5.24-.41-10.54-.71-15.74-.92-1.63-.06-3.23-.53-4.63-1.34l-61.84-35.95c-.45-.26-1.02-.22-1.41,.1-.49,.39-.97,.79-1.44,1.19-.23,4.38-1.13,34.41,16.86,45.66,.77,.48,1.65,.88,2.7,1.22,2.23,.72,6.03,2.32,6.51,4.93,.28,1.5-.58,3.07-2.55,4.64-.11,.07-5.04,2.97-5.32,6.27-.11,1.25,.5,2.44,1.81,3.53,.04,.04,3.82,3.35,.62,7.68-.2,.5-1.73,4.61,.03,7.86,1.12,2.07,3.36,3.4,6.66,3.98l.14,.05s3.84,1.74,10.01-3.95c.25-.19,5.22-3.72,13.49-2.85,1.57,.17,3.02,0,4.31-.5,1.26-.5,2.03-1.13,2.28-1.88,.21-.64,.05-1.42-.49-2.3-.57-.92-1.43-1.7-2.5-2.25-1.78-.92-4.01-2.43-4.55-4.42-.26-.95-.1-1.89,.47-2.8,.11-.19,1.26-1.84,5.25,.21,2.31,1.19,4.93,1.45,7.38,.74,1.14-.33,2.53-.58,4.15-.58Z" fill="#231f20"></path>
    </g>
    <g>
      <rect x="311.21" y="34.61" width="40.41" height="63.46" rx="20.2" ry="20.2" transform="translate(-1.04 127.25) rotate(-21.7)" fill="#f2b3c1"></rect>
      <path d="M335.7,97.75c-8.23,0-16.04-4.94-19.26-13.05l-8.52-21.42c-2.04-5.14-1.97-10.77,.22-15.84,2.19-5.08,6.22-9,11.36-11.05,10.61-4.22,22.67,.97,26.89,11.58l8.53,21.42c2.04,5.14,1.97,10.77-.22,15.84-2.19,5.08-6.22,9-11.36,11.05h0c-2.5,1-5.09,1.47-7.63,1.47Zm-8.57-61.83c-2.42,0-4.88,.45-7.26,1.4-4.89,1.95-8.73,5.68-10.81,10.51-2.08,4.83-2.16,10.19-.21,15.08l8.52,21.42c4.02,10.1,15.5,15.04,25.59,11.02h0c4.89-1.95,8.73-5.68,10.81-10.51,2.08-4.83,2.16-10.19,.21-15.08l-8.53-21.42c-3.07-7.71-10.5-12.42-18.33-12.42Z" fill="#231f20"></path>
    </g>
    <g>
      <path d="M314.46,92.2s-11.71-3.87-16.23-12.43c0,0-13.59-2.52-6.04-12.08,0,0-2.52-2.01,0-5.03,0,0-15.6-9.56,1.01-17.61,0,0-2.01-6.54,5.03-6.04,0,0-3.02-11.58,6.54-16.1,0,0,7.55-4.53,14.59,2.01,0,0,3.02-6.04,8.05-1.01,0,0,3.15-5.05,9.46-3.15,4.11,1.23,7.14,4.73,8.05,8.92,.55,2.52,.59,5.63-.9,8.83,0,0,3.81,5.64,1.51,8.56,0,0-2.66-6.76-10.89-10.17,0,0-2.19,8.16-22.83,17.22,0,0-2.52,1.51-1.51,7.55,0,0,3.21,16.76,3.12,21.47,0,0,1.67,4.9,1.04,9.08Z" fill="#231f20"></path>
      <path d="M314.86,92.86l-.56-.19c-.48-.16-11.76-3.97-16.41-12.46-1.24-.27-6.75-1.66-8.17-5.42-.78-2.06-.17-4.44,1.79-7.06-.35-.39-.84-1.11-.94-2.08-.1-.95,.2-1.91,.88-2.87-1.59-1.08-6.64-4.89-6.41-9.57,.16-3.17,2.7-6,7.56-8.44-.2-.91-.5-3.12,.74-4.68,.87-1.1,2.34-1.62,4.25-1.61-.47-2.57-1.54-12.01,6.95-16.03,.04-.02,7.58-4.43,14.69,1.69,.55-.84,1.79-2.38,3.64-2.68,1.45-.24,2.96,.33,4.47,1.7,1.03-1.27,4.29-4.5,9.67-2.88,4.21,1.26,7.43,4.83,8.39,9.3,.68,3.14,.4,6.12-.82,8.89,.73,1.15,3.58,6.07,1.33,8.91l-.54,.68-.32-.81c-.03-.06-2.59-6.34-10.14-9.69-.86,1.99-5.04,9.17-22.91,17.01h0s-2.14,1.48-1.22,7.01c.13,.67,3.18,16.66,3.12,21.47,.23,.69,1.64,5.23,1.03,9.23l-.09,.59Zm-17.39-53.38c-1.56,0-2.69,.41-3.34,1.24-1.25,1.56-.47,4.16-.47,4.19l.12,.41-.38,.19c-4.74,2.3-7.22,4.91-7.36,7.76-.24,4.84,6.33,8.93,6.4,8.98l.49,.3-.37,.44c-.74,.88-1.07,1.75-.99,2.56,.1,1.08,.91,1.76,.92,1.76l.38,.31-.3,.39c-1.95,2.47-2.59,4.63-1.91,6.44,1.36,3.63,7.59,4.83,7.65,4.84l.24,.04,.11,.21c3.81,7.2,12.98,11.07,15.37,11.98,.37-3.87-1.08-8.19-1.1-8.23l-.03-.08v-.09c.1-4.6-3.07-21.19-3.1-21.36-1.05-6.31,1.63-8,1.74-8.07,20.13-8.84,22.58-16.84,22.6-16.92l.15-.54,.52,.21c6.62,2.75,9.7,7.54,10.74,9.54,.99-2.75-1.93-7.14-1.96-7.19l-.16-.23,.12-.26c1.23-2.63,1.52-5.5,.87-8.51-.89-4.12-3.84-7.39-7.7-8.55-5.85-1.75-8.77,2.75-8.9,2.94l-.33,.53-.44-.44c-1.41-1.41-2.76-2.02-4.01-1.82-2.02,.33-3.23,2.67-3.24,2.7l-.3,.59-.49-.45c-6.7-6.22-13.93-1.99-14-1.95-9.11,4.32-6.43,15.09-6.32,15.55l.17,.67-.69-.05c-.25-.02-.48-.03-.71-.03Z" fill="#231f20"></path>
    </g>
    <g>
      <ellipse cx="309.04" cy="74.99" rx="7.3" ry="9.31" transform="translate(14.58 195.07) rotate(-35.82)" fill="#f2b3c1"></ellipse>
      <path d="M310.89,84.17c-.75,0-1.53-.11-2.31-.34-2.25-.65-4.33-2.17-5.85-4.27-1.52-2.11-2.31-4.56-2.21-6.9,.09-2.39,1.09-4.38,2.79-5.62,3.48-2.52,8.9-1,12.06,3.39s2.91,10-.58,12.52c-1.12,.81-2.46,1.22-3.9,1.22Zm-3.68-17.35c-1.21,0-2.35,.33-3.32,1.03-1.45,1.05-2.3,2.77-2.38,4.85-.08,2.12,.64,4.35,2.03,6.28,1.39,1.93,3.28,3.31,5.32,3.9,1.99,.57,3.89,.32,5.35-.73,3.04-2.19,3.2-7.18,.35-11.12-1.94-2.68-4.77-4.2-7.35-4.2Z" fill="#231f20"></path>
    </g>
    <g>
      <path d="M268.61,223.74l37.16,1.98s6.04,3.02,13.09,.5c0,0,10.07,1.51,7.55-6.04,0,0,4.03-.5,3.52-6.04l4.48,1.6c1.43,.51,3.01-.2,3.57-1.61h0c.56-1.4-.08-3-1.45-3.62l-14.15-6.43s-1.01-4.03,7.55-1.51l9.49,3.71c1.18,.46,2.52-.05,3.09-1.19h0c.57-1.14,.17-2.53-.92-3.19l-9.33-5.66c-1.83-1.11-3.99-1.54-6.1-1.2l-14.15,2.23c-1.97,.31-3.27,2.26-2.74,4.19,0,.03,.02,.07,.03,.1,0,0-3.45,.98-3.03,3.44,0,.04-.02,.08-.06,.07-.83-.12-8.19-1.26-19.55-5.52,0,0-8.92,.5-18.4,23.61-.11,.26,.08,.56,.36,.57Z" fill="#f2b3c1"></path>
      <path d="M313,227.73c-3.91,0-6.78-1.25-7.36-1.52l-37.06-1.98c-.29-.02-.56-.17-.72-.42-.16-.25-.19-.56-.07-.84,9.49-23.15,18.46-23.9,18.83-23.92h.1s.1,.03,.1,.03c10,3.75,16.88,5.07,18.9,5.41,.06-1.91,2.06-2.9,2.98-3.26-.16-.94,.03-1.92,.56-2.73,.6-.93,1.57-1.56,2.66-1.73l14.15-2.23c2.22-.35,4.52,.1,6.44,1.27l9.33,5.66c1.3,.79,1.79,2.48,1.11,3.85-.69,1.38-2.29,1.99-3.72,1.43l-9.49-3.71c-4.48-1.32-6.02-.71-6.53-.23-.33,.31-.38,.69-.38,.93l13.9,6.32c1.62,.74,2.37,2.61,1.71,4.26-.67,1.67-2.52,2.5-4.21,1.9l-3.77-1.35c.08,4.03-2.31,5.3-3.43,5.67,.51,1.85,.31,3.34-.6,4.42-1.99,2.37-6.67,1.89-7.52,1.78-2.11,.74-4.12,1-5.91,1Zm-44.25-4.49l37.15,1.98,.09,.05c.06,.03,5.95,2.89,12.69,.48l.12-.04,.12,.02s4.95,.71,6.74-1.41c.75-.9,.84-2.23,.26-3.97l-.19-.58,.6-.08c.14-.02,3.54-.54,3.09-5.5l-.07-.78,5.22,1.86c1.19,.42,2.48-.16,2.94-1.33,.46-1.16-.06-2.47-1.2-2.98l-14.37-6.53-.06-.23s-.29-1.23,.62-2.1c1.18-1.13,3.72-1.13,7.55,0l9.53,3.73c.95,.37,2-.04,2.46-.95,.45-.9,.13-2.02-.73-2.54l-9.33-5.66c-1.72-1.05-3.77-1.45-5.77-1.14l-14.15,2.23c-.81,.13-1.53,.6-1.98,1.29-.44,.69-.57,1.5-.36,2.28l.16,.58-.48,.14s-3.01,.89-2.68,2.88l.04,.25-.37,.42-.3-.02c-.81-.12-8.19-1.26-19.54-5.51-.94,.15-9.15,2.08-17.83,23.18Z" fill="#231f20"></path>
    </g>
    <path d="M306.27,222.19c-.12,0-.23-.04-.33-.12-1.3-1.14-1.96-2.41-1.96-3.77,0-1.75,1.1-3.13,1.65-3.72-.99-1.6-1.3-3.03-.94-4.26,.26-.88,.82-1.46,1.26-1.79-1.04-1.35-.19-3.52-.15-3.63,.1-.26,.39-.38,.65-.28,.26,.1,.38,.39,.28,.65,0,.02-.84,2.15,.32,2.92,.15,.1,.24,.28,.22,.46-.02,.18-.13,.34-.3,.41,0,0-1,.46-1.32,1.55-.3,1.02,.05,2.28,1.04,3.76,.14,.21,.1,.49-.09,.65-.02,.01-1.62,1.45-1.62,3.28,0,1.06,.55,2.07,1.62,3.01,.21,.18,.23,.5,.05,.71-.1,.11-.24,.17-.38,.17Z" fill="#231f20"></path>
    <path d="M322.38,204.58c-.13,0-.25-.05-.35-.14-.35-.3-3.26-1.46-5.86-2.4-.26-.09-.39-.38-.3-.64,.09-.26,.38-.39,.64-.3,1.7,.62,5.7,2.11,6.22,2.63,.2,.2,.2,.51,0,.71-.1,.1-.23,.15-.35,.15Z" fill="#231f20"></path>
    <path d="M329.93,214.64s-.08,0-.12-.01l-20.63-5.03c-.27-.07-.43-.34-.37-.6,.07-.27,.34-.43,.6-.37l20.63,5.03c.27,.07,.43,.34,.37,.6-.06,.23-.26,.38-.49,.38Z" fill="#231f20"></path>
    <path d="M326.4,220.68s-.08,0-.13-.02l-17.11-4.53c-.27-.07-.43-.34-.36-.61,.07-.27,.34-.43,.61-.36l17.11,4.53c.27,.07,.43,.34,.36,.61-.06,.22-.26,.37-.48,.37Z" fill="#231f20"></path>
    <g>
      <path d="M249.91,222.7s.32-2.6,.97-4.4c.29-.82,.43-1.68,.37-2.55-.11-1.71,0-4.62,1.68-6.64,0,0,19.63-21.64,29.69-13.09,0,0,10.57-2.52,11.07,6.04l-7.05-2.52s-8.05,1.51-15.6,17.61c0,0-8.05,15.1,0,15.6,0,0,8.05,.5,13.59-7.55h3.02s-7.05,11.58-17.11,10.57c0,0-16.1-3.02-20.63-13.09Z" fill="#f6c34c"></path>
      <path d="M271.8,236.35c-.43,0-.87-.02-1.31-.07-.71-.13-16.46-3.19-21.04-13.38l-.06-.13,.02-.14c.01-.11,.34-2.67,1-4.51,.28-.77,.39-1.56,.34-2.35-.11-1.68-.02-4.81,1.79-6.99,.82-.91,19.85-21.66,30.21-13.31,1.14-.23,5.82-.99,8.86,1.27,1.57,1.17,2.44,2.95,2.58,5.28l.04,.75-7.62-2.72c-1.01,.28-8.29,2.74-15.12,17.31-.06,.12-5.13,9.72-3.03,13.47,.49,.88,1.34,1.34,2.61,1.42,.07,0,7.85,.37,13.15-7.33l.15-.22h4.17l-.46,.76c-.28,.46-6.73,10.87-16.28,10.87Zm-21.38-13.73c4.45,9.61,20.05,12.64,20.21,12.67,8.11,.81,14.32-7.06,16.08-9.58h-1.82c-5.62,7.97-13.54,7.57-13.88,7.55-1.61-.1-2.76-.75-3.42-1.93-2.36-4.23,2.79-13.99,3.01-14.4,7.56-16.13,15.61-17.81,15.95-17.87l.13-.03,6.43,2.3c-.24-1.65-.94-2.91-2.1-3.77-3.03-2.26-8.23-1.06-8.28-1.05l-.25,.06-.19-.16c-9.59-8.14-28.81,12.83-29,13.04-1.58,1.9-1.65,4.74-1.55,6.27,.06,.93-.07,1.85-.4,2.75-.54,1.5-.85,3.6-.93,4.15Z" fill="#231f20"></path>
    </g>
    <g>
      <path d="M268.61,223.74s-3.6,8.52,2.44,9.03c0,0,9.49,.14,13.55-8.23l-15.99-.8Z" fill="#231f20"></path>
      <path d="M271.05,233.27h-.02c-1.56-.13-2.67-.74-3.33-1.83-1.69-2.79,.35-7.69,.44-7.89l.14-.32,17.1,.85-.33,.68c-4.07,8.4-13.53,8.51-13.99,8.51Zm-2.11-9.01c-.4,1.09-1.58,4.68-.38,6.67,.49,.81,1.31,1.25,2.52,1.35,.06,0,8.67,.03,12.71-7.27l-14.85-.74Z" fill="#231f20"></path>
    </g>
    <g>
      <path d="M282.91,177.28l-.66,5.9c-.09,.79,.25,1.56,.9,2.03l3.15,2.29c.8,.58,1.88,.56,2.65-.04l2.48-1.93c.47-.37,.78-.91,.84-1.51l.66-6.29c.13-1.25-.85-2.34-2.11-2.34h-5.82c-1.08,0-1.99,.81-2.11,1.88Z" fill="#f6c34c"></path>
      <path d="M287.61,188.42c-.56,0-1.12-.17-1.59-.52l-3.15-2.29c-.78-.57-1.21-1.52-1.1-2.49l.66-5.9c.15-1.33,1.27-2.33,2.6-2.33h5.82c.74,0,1.45,.32,1.95,.87s.74,1.29,.66,2.03l-.66,6.29c-.08,.73-.45,1.4-1.03,1.85l-2.48,1.93c-.49,.38-1.07,.57-1.66,.57Zm-2.59-12.53c-.83,0-1.52,.62-1.61,1.44l-.66,5.9c-.07,.61,.2,1.21,.69,1.57l3.15,2.29c.61,.45,1.46,.43,2.05-.03l2.48-1.93c.36-.28,.6-.71,.65-1.17l.66-6.29c.05-.46-.1-.91-.41-1.25s-.74-.54-1.2-.54h-5.82Z" fill="#231f20"></path>
    </g>
    <path d="M290.67,179.42h-6.04c-.28,0-.5-.22-.5-.5s.22-.5,.5-.5h6.04c.28,0,.5,.22,.5,.5s-.22,.5-.5,.5Z" fill="#231f20"></path>
    <path d="M290.67,183.44h-6.04c-.28,0-.5-.22-.5-.5s.22-.5,.5-.5h6.04c.28,0,.5,.22,.5,.5s-.22,.5-.5,.5Z" fill="#231f20"></path>
    <g>
      <path d="M463.8,249.37s-1.51,6.04,9.06,7.55c0,0,12.08,1.01,11.07-6.54,0,0,7.55-3.52,3.52-7.05,0,0,5.03-1.51,2.01-5.54,0,0,4.36-2.18,3.2-4.69-.41-.88-1.37-1.35-2.33-1.27-3.36,.28-13.04,1.57-13.45,6.97,0,0-12.08-2.52-10.57,5.03,0,0-2.99-1.5-4.78,.02-.68,.57-.86,1.53-.47,2.33,.36,.75,1.13,1.81,2.74,3.18Z" fill="#f2b3c1"></path>
      <path d="M474.26,257.47c-.82,0-1.37-.04-1.45-.05-4.28-.61-7.18-2.01-8.62-4.17-1.05-1.56-1.01-3.05-.93-3.69-1.29-1.13-2.18-2.2-2.65-3.16-.49-1.01-.24-2.21,.6-2.93,1.41-1.2,3.38-.8,4.49-.43-.11-1.41,.28-2.56,1.14-3.42,2.41-2.39,7.88-1.71,9.61-1.42,.98-5.23,9.94-6.55,13.84-6.88,1.19-.1,2.34,.52,2.82,1.56,1.1,2.37-1.73,4.36-2.93,5.07,.71,1.12,.91,2.18,.59,3.14-.42,1.27-1.64,2.03-2.45,2.41,.63,.75,.89,1.55,.77,2.4-.33,2.35-3.59,4.2-4.64,4.75,.14,1.65-.31,3.04-1.35,4.13-2.23,2.34-6.58,2.67-8.85,2.67Zm-9.98-7.98c-.02,.08-.36,1.59,.75,3.22,1.27,1.87,4,3.15,7.89,3.71,.04,0,6.76,.52,9.46-2.31,.9-.95,1.25-2.15,1.04-3.67l-.05-.36,.33-.16c1.14-.53,4.14-2.31,4.4-4.15,.1-.72-.22-1.4-.99-2.07l-.68-.59,.86-.26s2.06-.64,2.53-2.06c.25-.77,0-1.68-.77-2.69l-.36-.48,.54-.27s3.92-1.99,2.97-4.03c-.3-.66-1.05-1.05-1.83-.99-2.95,.25-12.61,1.46-13,6.51l-.04,.57-.56-.12c-.07-.02-6.79-1.38-9.23,1.05-.8,.79-1.04,1.9-.74,3.39l.2,1-.91-.45s-2.72-1.33-4.24-.04c-.49,.42-.63,1.13-.34,1.73,.3,.61,.99,1.64,2.61,3.02l.23,.2-.07,.3Z" fill="#231f20"></path>
    </g>
    <path d="M475.87,252.23c-6.56,0-11.96-2.27-12.27-2.4-.25-.11-.37-.4-.26-.66,.11-.26,.41-.37,.66-.26,.1,.04,10.51,4.41,19.76,1,.26-.09,.55,.04,.64,.3,.1,.26-.04,.55-.3,.64-2.76,1.02-5.59,1.38-8.23,1.38Z" fill="#231f20"></path>
    <path d="M474.98,245.33c-5.46,0-8.61-.95-8.82-1.02-.26-.08-.41-.36-.33-.63,.08-.26,.37-.41,.63-.33,.08,.02,8.1,2.44,20.88-.51,.27-.06,.54,.11,.6,.38,.06,.27-.11,.54-.38,.6-4.98,1.15-9.22,1.51-12.58,1.51Z" fill="#231f20"></path>
    <path d="M479.4,239.55c-1.96,0-2.65-.26-2.71-.28-.26-.1-.38-.39-.28-.65,.1-.25,.39-.38,.64-.28,.06,.02,2.71,.89,12.31-1.03,.26-.05,.53,.12,.59,.39,.05,.27-.12,.53-.39,.59-5.03,1.01-8.21,1.26-10.16,1.26Z" fill="#231f20"></path>
    <g>
      <path d="M200.08,462.76l.17,157.09c.01,6.07-4.92,11-10.99,11H99.93c-6.9,0-12.45-5.67-12.3-12.57l3.43-156.35c.18-8.25,6.84-14.88,15.1-15.02l109.03-1.77s-15.1,3.02-15.1,17.61Z" fill="#fff"></path>
      <path d="M189.26,631.36H99.93c-3.47,0-6.72-1.37-9.15-3.85-2.43-2.48-3.72-5.76-3.65-9.23l3.43-156.35c.19-8.55,7.04-15.37,15.59-15.51l109.03-1.77,.11,.99c-.6,.12-14.69,3.12-14.7,17.12l.17,157.09c0,3.07-1.19,5.96-3.36,8.13-2.17,2.18-5.06,3.37-8.14,3.37Zm22.6-185.65l-105.69,1.71c-8.01,.13-14.43,6.51-14.61,14.53l-3.43,156.35c-.07,3.2,1.12,6.22,3.36,8.51,2.24,2.29,5.24,3.55,8.44,3.55h89.33c2.81,0,5.44-1.09,7.43-3.08,1.98-1.98,3.07-4.62,3.06-7.42l-.17-157.09c0-10.53,7.73-15.21,12.27-17.06Z" fill="#231f20"></path>
    </g>
    <path d="M149.25,454.71h0l-47.81-.5c-.28,0-.5-.23-.49-.51,0-.27,.23-.49,.5-.49h0l47.81,.5c.28,0,.5,.23,.49,.51,0,.27-.23,.49-.5,.49Z" fill="#231f20"></path>
    <g>
      <path d="M244.74,459.84l-1.38,162.96-9.06,3.02s-1.06,9.84-3.75,14.54c-.73,1.28-2.11,2.06-3.59,2.04l-2.7-.03-45.31-.46-61.81-1.85c-5.04-.15-9.23-4.02-9.69-9.04,0-.07,0-.13-.02-.19h81.83c6.07,0,11-4.93,10.99-11l-.17-157.09c0-14.59,15.1-17.61,15.1-17.61l14-.47c8.56-.29,15.63,6.61,15.56,15.17Z" fill="#fff"></path>
      <path d="M227,642.91h-.05l-48.02-.48-61.82-1.85c-5.32-.16-9.7-4.24-10.18-9.49l-.05-.68,.54-.05h81.83c2.81,0,5.44-1.09,7.43-3.08,1.98-1.98,3.07-4.62,3.06-7.42l-.17-157.09c0-14.83,15.35-18.07,15.5-18.1l14.08-.48c4.28-.15,8.31,1.42,11.38,4.4,3.07,2.99,4.73,6.99,4.7,11.27h0s-1.38,163.32-1.38,163.32l-9.1,3.03c-.21,1.77-1.31,10.11-3.78,14.42-.81,1.42-2.33,2.29-3.98,2.29Zm-119.02-11.56c.59,4.57,4.47,8.08,9.17,8.23l61.81,1.85,48.01,.48c1.28,0,2.51-.67,3.15-1.79,2.61-4.56,3.68-14.25,3.69-14.35l.03-.32,9.02-3.01,1.38-162.6c.03-4-1.53-7.75-4.4-10.54-2.87-2.79-6.65-4.26-10.65-4.12l-14,.47c-.52,.11-14.62,3.11-14.62,17.11l.17,157.09c0,3.07-1.19,5.96-3.36,8.13-2.17,2.18-5.06,3.37-8.14,3.37H107.98Z" fill="#231f20"></path>
    </g>
    <path d="M220.54,643.04c-.22,0-.41-.14-.48-.36-.08-.26,.07-.54,.34-.62,.28-.08,6.89-2.16,7.37-11.23l.5-168.07c0-.14,.17-13.19-8.38-17.34-.25-.12-.35-.42-.23-.67,.12-.25,.42-.35,.67-.23,9.13,4.44,8.96,17.69,8.94,18.25l-.5,168.08c-.52,9.83-8.01,12.14-8.09,12.16-.05,.01-.09,.02-.14,.02Z" fill="#231f20"></path>
    <path d="M218.2,477.35c-.28,0-.5-.22-.5-.5v-14.09c0-.28,.22-.5,.5-.5s.5,.22,.5,.5v14.09c0,.28-.22,.5-.5,.5Z" fill="#231f20"></path>
    <path d="M239.34,478.11c-.28,0-.5-.22-.5-.5v-14.09c0-.28,.22-.5,.5-.5s.5,.22,.5,.5v14.09c0,.28-.22,.5-.5,.5Z" fill="#231f20"></path>
    <path d="M162.84,504.03h-42.27c-.28,0-.5-.22-.5-.5v-11.07c0-.28,.22-.5,.5-.5h43.78c.28,0,.5,.22,.5,.5s-.22,.5-.5,.5h-43.28v10.07h41.77c.28,0,.5,.22,.5,.5s-.22,.5-.5,.5Z" fill="#231f20"></path>
    <g>
      <polygon points="159.09 446.21 161.83 308.76 167.37 308.76 165.82 446.45 159.09 446.21" fill="#fff"></polygon>
      <path d="M166.31,446.97l-7.73-.28,2.76-138.44h6.53l-1.57,138.71Zm-6.71-1.24l5.72,.2,1.54-136.68h-4.54l-2.72,136.47Z" fill="#231f20"></path>
    </g>
    <g>
      <polygon points="201.59 445.15 203.1 309.26 208.13 309.26 206.12 445.15 201.59 445.15" fill="#fff"></polygon>
      <path d="M206.61,445.65h-5.53v-.51s1.52-136.38,1.52-136.38h6.03v.51s-2.03,136.38-2.03,136.38Zm-4.52-1h3.53l2-134.88h-4.03l-1.5,134.88Z" fill="#231f20"></path>
    </g>
    <g>
      <path d="M121.41,446.62v-1.5c0-.88,.6-1.64,1.45-1.84,8.74-2.09,55.23-12.26,90.98-1.56,.8,.24,1.34,.98,1.34,1.81v1.62l-14.38,.28v-1.94c0-1.09-.78-2.02-1.86-2.21-7.27-1.28-34.75-5.22-62.41,2.48-.82,.23-1.38,.98-1.38,1.82v.74l-13.75,.31Z" fill="#231f20"></path>
      <path d="M120.91,447.13v-2.01c0-1.11,.75-2.07,1.83-2.33,8.95-2.14,55.43-12.27,91.24-1.56,1,.3,1.69,1.24,1.69,2.29v2.11l-15.38,.3v-2.45c0-.85-.61-1.57-1.44-1.72-7.67-1.35-34.8-5.16-62.19,2.46-.59,.17-1.01,.72-1.01,1.34v1.23l-14.75,.33Zm55.38-9.73c-24.88,0-47.38,4.95-53.32,6.37-.63,.15-1.07,.71-1.07,1.35v.99l12.75-.29v-.25c0-1.07,.72-2.02,1.74-2.3,27.59-7.68,54.92-3.84,62.63-2.49,1.31,.23,2.27,1.37,2.27,2.7v1.43l13.38-.26v-1.13c0-.61-.4-1.16-.98-1.33-11.87-3.55-24.94-4.8-37.41-4.8Z" fill="#231f20"></path>
    </g>
    <g>
      <path d="M159.82,300.35v10.63c0,1.28,1.04,2.31,2.31,2.31h4.43c1.28,0,2.31-1.04,2.31-2.31v-4.83c0-1.03,.88-1.85,1.91-1.77l15.25,1.2c1.29,.1,2.6-.07,3.82-.51l8.35-3.01c1.16-.42,2.37,.44,2.37,1.67v7.4c0,.63,.51,1.15,1.15,1.15h7.8c.62,0,1.13-.5,1.15-1.12l.41-15.28c.03-1.24-.92-2.29-2.16-2.37l-26.19-1.72c-1.51-.1-3.02,.1-4.45,.59l-16.9,5.77c-.94,.32-1.57,1.2-1.57,2.19Z" fill="#231f20"></path>
      <path d="M166.57,313.79h-4.43c-1.55,0-2.81-1.26-2.81-2.81v-10.63c0-1.2,.77-2.27,1.9-2.66l16.9-5.77c1.5-.51,3.07-.72,4.65-.62l26.19,1.72c1.52,.1,2.67,1.37,2.63,2.88l-.41,15.28c-.02,.9-.75,1.6-1.65,1.6h-7.8c-.91,0-1.65-.74-1.65-1.65v-7.4c0-.42-.2-.8-.54-1.04-.34-.24-.77-.3-1.16-.16l-8.35,3.01c-1.3,.47-2.65,.65-4.03,.54l-15.25-1.2c-.36-.03-.7,.09-.96,.33-.26,.24-.41,.58-.41,.93v4.83c0,1.55-1.26,2.81-2.81,2.81Zm15.42-21.52c-1.2,0-2.39,.2-3.53,.59l-16.9,5.77c-.73,.25-1.23,.94-1.23,1.72v10.63c0,1,.81,1.81,1.81,1.81h4.43c1,0,1.81-.81,1.81-1.81v-4.83c0-.63,.27-1.24,.73-1.67,.46-.43,1.09-.64,1.72-.6l15.25,1.2c1.23,.1,2.45-.07,3.61-.48l8.35-3.01c.7-.25,1.47-.15,2.08,.28,.6,.43,.97,1.12,.97,1.86v7.4c0,.36,.29,.65,.65,.65h7.8c.35,0,.64-.28,.65-.63l.41-15.28c.03-.98-.72-1.79-1.69-1.86l-26.19-1.72c-.24-.02-.48-.02-.73-.02Z" fill="#231f20"></path>
    </g>
    <g>
      <path d="M115.77,639.96c-7.31-.96-8.29-9.11-8.29-9.11v-5.28c0-1.25-1.02-2.27-2.27-2.27h-16.85v4.65c0,.77,.62,1.39,1.39,1.39h2.64v1.63c0,.77,.62,1.39,1.39,1.39h.52v4.5l8.92,15.2s.1,.03,.29,.07c6.48,1.53,12.62-3.6,12.35-10.25l-.08-1.93Z" fill="#231f20"></path>
      <path d="M105.83,652.91c-.81,0-1.63-.09-2.44-.29-.2-.05-.31-.08-.31-.08l-.19-.06-9.09-15.49-.02-4.14c-1.04,0-1.89-.85-1.89-1.89v-1.13h-2.14c-1.04,0-1.89-.85-1.89-1.89v-5.15h17.35c1.53,0,2.77,1.24,2.77,2.77v5.28c.04,.26,1.02,7.71,7.86,8.61l.42,.05,.1,2.35c.14,3.35-1.27,6.49-3.86,8.63-1.92,1.58-4.26,2.41-6.66,2.41Zm-2.29-1.28s.05,.01,.08,.02c2.91,.69,5.91-.01,8.23-1.93,2.35-1.93,3.62-4.78,3.5-7.82l-.06-1.52c-7.23-1.25-8.29-9.39-8.3-9.48v-5.34c0-.98-.8-1.77-1.77-1.77h-16.35v4.15c0,.49,.4,.89,.89,.89h3.14v2.13c0,.49,.4,.89,.89,.89h1.02v4.87l8.74,14.9Z" fill="#231f20"></path>
    </g>
    <g>
      <ellipse cx="97.92" cy="645.2" rx="8.05" ry="9.31" fill="#fff"></ellipse>
      <path d="M97.92,655.01c-4.72,0-8.55-4.4-8.55-9.81s3.84-9.81,8.55-9.81,8.55,4.4,8.55,9.81-3.84,9.81-8.55,9.81Zm0-18.62c-4.16,0-7.55,3.95-7.55,8.81s3.39,8.81,7.55,8.81,7.55-3.95,7.55-8.81-3.39-8.81-7.55-8.81Z" fill="#231f20"></path>
    </g>
    <g>
      <ellipse cx="95.65" cy="644.44" rx="2.77" ry="4.03" fill="#231f20"></ellipse>
      <path d="M95.65,648.97c-1.8,0-3.27-2.03-3.27-4.53s1.47-4.53,3.27-4.53,3.27,2.03,3.27,4.53-1.47,4.53-3.27,4.53Zm0-8.05c-1.23,0-2.27,1.61-2.27,3.53s1.04,3.53,2.27,3.53,2.27-1.61,2.27-3.53-1.04-3.53-2.27-3.53Z" fill="#231f20"></path>
    </g>
    <g>
      <ellipse cx="200.33" cy="652.5" rx="8.3" ry="10.07" fill="#fff"></ellipse>
      <path d="M200.33,663.06c-4.85,0-8.8-4.74-8.8-10.57s3.95-10.57,8.8-10.57,8.8,4.74,8.8,10.57-3.95,10.57-8.8,10.57Zm0-20.13c-4.3,0-7.8,4.29-7.8,9.57s3.5,9.57,7.8,9.57,7.8-4.29,7.8-9.57-3.5-9.57-7.8-9.57Z" fill="#231f20"></path>
    </g>
    <g>
      <ellipse cx="197.82" cy="652.5" rx="2.77" ry="4.03" fill="#231f20"></ellipse>
      <path d="M197.82,657.02c-1.8,0-3.27-2.03-3.27-4.53s1.47-4.53,3.27-4.53,3.27,2.03,3.27,4.53-1.47,4.53-3.27,4.53Zm0-8.05c-1.23,0-2.27,1.61-2.27,3.53s1.04,3.53,2.27,3.53,2.27-1.61,2.27-3.53-1.04-3.53-2.27-3.53Z" fill="#231f20"></path>
    </g>
    <g>
      <path d="M179.95,637.4s.66,2.86,1.84,4.45l15.78,.58,18.04-.05s2.1-.45,3.61-4.48l-1.51-2.52-14.09-1.51h-12.08l-11.58,3.52Z" fill="#231f20"></path>
      <path d="M197.57,642.93l-16.04-.59-.14-.19c-1.23-1.65-1.9-4.52-1.92-4.64l-.1-.45,12.17-3.68h12.08l14.39,1.54,1.76,2.94-.08,.23c-1.59,4.23-3.87,4.77-3.97,4.79h-.1s-18.04,.06-18.04,.06Zm-15.51-1.57l15.53,.57,17.95-.05c.26-.09,1.87-.75,3.12-3.93l-1.26-2.09-13.84-1.48h-11.95s-11.05,3.36-11.05,3.36c.22,.8,.74,2.49,1.5,3.62Z" fill="#231f20"></path>
    </g>
    <g>
      <path d="M195.55,636.39c-3.52,4.03,2.01,4.03,2.01,4.03v2.01c3.52,0,9.56,1.01,9.56,1.01v-3.52h2.01v-2.52l10.07,.5c1.44-2.52,2.11-6.07,2.37-7.88,.1-.66-.37-1.28-1.04-1.36-4.76-.58-9.85,.56-13.08,1.53-2.5,.75-5.12,1.02-7.73,.81l-19.24-1.57c-.63-.05-1.19,.4-1.28,1.02-.48,3.3,.74,6.94,.74,6.94,0,0,3.64,.36,7.82-.45,1.74-.34,3.51-.55,5.28-.55h2.5Z" fill="#fff"></path>
      <path d="M207.63,644.03l-.58-.1c-.06,0-6.04-1-9.48-1h-.5v-2.04c-.86-.07-2.51-.36-3.03-1.5-.31-.69-.15-1.53,.5-2.5h-1.48c-1.62,0-3.32,.18-5.19,.54-4.21,.82-7.81,.48-7.96,.46l-.32-.03-.1-.31c-.05-.15-1.25-3.8-.76-7.17,.13-.88,.93-1.51,1.82-1.45l19.24,1.57c2.57,.21,5.1-.06,7.54-.79,3.42-1.03,8.5-2.13,13.28-1.55,.46,.06,.86,.29,1.14,.65,.28,.37,.4,.82,.33,1.27-.28,1.91-.96,5.49-2.43,8.06l-.15,.27-9.85-.49v2.49h-2.01v3.61Zm-9.56-2.09c2.91,.07,7.04,.68,8.56,.91v-3.44h2.01v-2.54l10.28,.51c1.29-2.41,1.91-5.67,2.16-7.44,.03-.19-.02-.37-.14-.52-.11-.15-.28-.24-.47-.27-4.61-.56-9.55,.52-12.88,1.52-2.56,.77-5.22,1.05-7.91,.83l-19.24-1.57c-.36-.05-.7,.23-.75,.6-.38,2.59,.35,5.46,.62,6.4,.98,.06,4,.18,7.34-.47,1.93-.38,3.69-.56,5.38-.56h3.6l-.73,.83c-.85,.97-1.2,1.78-.98,2.26,.35,.76,2.05,.94,2.62,.94h.5s0,2.02,0,2.02Z" fill="#231f20"></path>
    </g>
  </g>
  <path d="M323.48,59.5c-.16,0-.31-.07-.41-.21-.16-.22-.11-.54,.12-.7l7-5c.23-.16,.54-.11,.7,.12,.16,.22,.11,.54-.12,.7l-7,5c-.09,.06-.19,.09-.29,.09Z" fill="#231f20"></path>
  <path d="M348.98,55s-.08,0-.12-.02l-4-1c-.27-.07-.43-.34-.36-.61,.07-.27,.33-.43,.61-.36l4,1c.27,.07,.43,.34,.36,.61-.06,.23-.26,.38-.49,.38Z" fill="#231f20"></path>
  <path d="M324.98,65c-.08,0-.15-.02-.22-.05-.25-.12-.35-.42-.22-.67,.02-.04,2.27-4.39,7.63-2.24,.26,.1,.38,.39,.28,.65s-.39,.38-.65,.28c-4.51-1.81-6.29,1.61-6.37,1.76-.09,.18-.26,.28-.45,.28Z" fill="#231f20"></path>
  <path d="M342.98,61c-.15,0-.3-.07-.4-.2-.17-.22-.12-.53,.1-.7,.17-.13,4.32-3.19,7.58-1.02,.23,.15,.29,.46,.14,.69-.15,.23-.47,.29-.69,.14-2.67-1.78-6.39,.96-6.42,.98-.09,.07-.2,.1-.3,.1Z" fill="#231f20"></path>
  <path d="M339.98,72c-.22,0-.43-.15-.49-.38-.07-.27,.1-.54,.36-.61l3.33-.83-4.64-7.42c-.15-.23-.08-.54,.16-.69,.23-.15,.54-.08,.69,.16l5,8c.08,.14,.1,.3,.04,.45-.06,.15-.19,.26-.34,.3l-4,1s-.08,.02-.12,.02Z" fill="#231f20"></path>
  <path d="M340.09,78.21c-4.04,0-6.42-2.32-6.46-2.35-.2-.19-.2-.51,0-.71,.19-.2,.51-.2,.71,0,.19,.19,4.83,4.65,12.38-.07,.23-.15,.54-.08,.69,.16,.15,.23,.08,.54-.16,.69-2.74,1.71-5.15,2.28-7.16,2.28Z" fill="#231f20"></path>
  <path d="M310.98,77c-.11,0-.22-.04-.31-.11l-5-4c-.22-.17-.25-.49-.08-.7,.17-.21,.49-.25,.7-.08l5,4c.22,.17,.25,.49,.08,.7-.1,.12-.24,.19-.39,.19Z" fill="#231f20"></path>
</svg>
