<?xml version="1.0" standalone="no"?>
<svg version="1.1" id="Layer_1" xmlns="http://www.w3.org/2000/svg" xmlns:xlink="http://www.w3.org/1999/xlink" x="0px" y="0px" width="595.28px" height="595.28px" viewBox="0 0 595.28 595.28" enable-background="new 0 0 595.28 595.28" xml:space="preserve">
<path id="color_x5F_6" fill="#D4D4CE" d="M132.52,412.615c1.06-1.232,1.644-2.874,1.644-4.62c0-3.378-2.276-6.798-6.625-6.798
	c-2.034,0-3.756,0.753-4.981,2.178c-1.06,1.232-1.644,2.874-1.644,4.62c0,3.378,2.276,6.798,6.625,6.798
	C129.573,414.793,131.295,414.04,132.52,412.615z M123.914,407.995c0-1.015,0.335-1.985,0.919-2.664
	c0.646-0.752,1.557-1.134,2.706-1.134c2.861,0,3.625,2.388,3.625,3.798c0,1.015-0.335,1.985-0.919,2.664
	c-0.646,0.752-1.557,1.134-2.706,1.134C124.678,411.793,123.914,409.405,123.914,407.995z M260.613,278.659v-3h4.174v3H260.613z
	 M257.613,275.659v3h-4.174v-3H257.613z M257.613,282.833v-4.174h3v4.174H257.613z M260.613,275.659h-3v-4.172h3V275.659z
	 M260.613,278.659h-3v-3h3V278.659z M469.715,352.692c-0.982,3.779-1.775,7.868-2.45,11.891H245.549
	c-1.635-8.589-4.356-19.662-8.769-30.248c-2.307-5.533-4.674-11.752-6.911-17.908c8.733-1.244,18.481-4.324,31.475-10.166
	c40.598-18.254,66.893-72.894,113.688-55.621C411.658,264.159,453.332,326.315,469.715,352.692z M95.603,353.88
	c0.618,0.097,1.24,0.18,1.866,0.248c-0.804,0.08-1.582,0.245-2.329,0.479C95.291,354.368,95.447,354.124,95.603,353.88z
	 M178.952,333.044c3.594,6.978,6.696,19.325,9.114,31.539h-4.935c-1.87-7.366-8.427-12.898-16.377-13.281
	c-0.294-0.014-0.588-0.022-0.885-0.022c-0.902,0-1.784,0.074-2.649,0.202c-2.89,0.43-5.551,1.544-7.815,3.169
	c0.219-0.9,0.347-1.839,0.347-2.808c0-6.638-5.457-12.021-12.186-12.021c-4.966,0-9.228,2.936-11.128,7.141
	c-0.712-8.088-7.261-14.521-15.473-15.179c0.406-1.79,0.74-3.573,0.947-5.242c13.013-12.154,29.776-21.729,48.813-18.438
	c1.844,0.319,3.607,0.639,5.334,0.958C173.262,317.187,175.344,326.041,178.952,333.044z M121.671,263.169v-7.164
	c0-0.617,0.5-1.117,1.118-1.117s1.119,0.5,1.119,1.117v7.164c0,0.618-0.501,1.119-1.119,1.119S121.671,263.787,121.671,263.169z
	 M121.671,289.141v-7.165c0-0.617,0.5-1.119,1.118-1.119s1.119,0.502,1.119,1.119v7.165c0,0.618-0.501,1.118-1.119,1.118
	S121.671,289.759,121.671,289.141z M113.387,273.691h-7.165c-0.618,0-1.119-0.501-1.119-1.118c0-0.618,0.501-1.119,1.119-1.119
	h7.165c0.617,0,1.118,0.501,1.118,1.119C114.505,273.19,114.004,273.691,113.387,273.691z M132.193,271.454h7.165
	c0.618,0,1.118,0.501,1.118,1.119c0,0.617-0.5,1.118-1.118,1.118h-7.165c-0.618,0-1.118-0.501-1.118-1.118
	C131.075,271.955,131.575,271.454,132.193,271.454z M110.284,261.648c-0.437-0.437-0.437-1.146,0-1.581
	c0.436-0.438,1.145-0.438,1.582,0l5.066,5.066c0.437,0.436,0.437,1.145,0,1.581c-0.218,0.218-0.504,0.327-0.791,0.327
	s-0.573-0.109-0.791-0.327L110.284,261.648z M128.648,280.013c-0.437-0.438-0.437-1.145,0-1.582c0.436-0.437,1.145-0.437,1.582,0
	l5.066,5.066c0.437,0.438,0.437,1.145,0,1.582c-0.218,0.219-0.505,0.327-0.791,0.327s-0.573-0.108-0.791-0.327L128.648,280.013z
	 M116.931,280.013l-5.066,5.066c-0.218,0.219-0.505,0.327-0.791,0.327s-0.573-0.108-0.791-0.327c-0.437-0.438-0.437-1.145,0-1.582
	l5.066-5.066c0.437-0.437,1.146-0.437,1.582,0C117.368,278.868,117.368,279.575,116.931,280.013z M128.648,266.715
	c-0.437-0.437-0.437-1.146,0-1.581l5.066-5.066c0.436-0.438,1.145-0.438,1.582,0c0.437,0.436,0.437,1.145,0,1.581l-5.066,5.066
	c-0.218,0.218-0.505,0.327-0.791,0.327S128.866,266.933,128.648,266.715z M308.399,381.068v12.813c0,1.104-0.896,2-2,2
	c-1.105,0-2-0.896-2-2v-12.813c0-1.104,0.895-2,2-2C307.503,379.068,308.399,379.964,308.399,381.068z M308.399,427.513v12.813
	c0,1.104-0.896,2-2,2c-1.105,0-2-0.896-2-2v-12.813c0-1.104,0.895-2,2-2C307.503,425.513,308.399,426.408,308.399,427.513z
	 M289.583,412.697h-12.813c-1.105,0-2-0.896-2-2s0.895-2,2-2h12.813c1.104,0,2,0.896,2,2S290.687,412.697,289.583,412.697z
	 M338.028,410.697c0,1.104-0.896,2-2,2h-12.813c-1.105,0-2-0.896-2-2s0.895-2,2-2h12.813
	C337.132,408.697,338.028,409.593,338.028,410.697z M295.923,397.393c0.781,0.781,0.781,2.047,0,2.828
	c-0.391,0.391-0.902,0.586-1.414,0.586s-1.023-0.195-1.414-0.586l-9.061-9.061c-0.781-0.781-0.781-2.047,0-2.828
	s2.047-0.781,2.828,0L295.923,397.393z M328.765,430.234c0.781,0.781,0.781,2.047,0,2.828c-0.391,0.391-0.902,0.586-1.414,0.586
	s-1.023-0.195-1.414-0.586l-9.061-9.061c-0.781-0.781-0.781-2.047,0-2.828s2.047-0.781,2.828,0L328.765,430.234z M295.923,421.174
	c0.781,0.781,0.781,2.047,0,2.828l-9.061,9.061c-0.391,0.391-0.902,0.586-1.414,0.586s-1.023-0.195-1.414-0.586
	c-0.781-0.781-0.781-2.047,0-2.828l9.061-9.061C293.876,420.393,295.142,420.393,295.923,421.174z M316.876,400.221
	c-0.781-0.781-0.781-2.047,0-2.828l9.061-9.061c0.781-0.781,2.047-0.781,2.828,0s0.781,2.047,0,2.828l-9.061,9.061
	c-0.391,0.391-0.902,0.586-1.414,0.586S317.267,400.611,316.876,400.221z M470.842,253.972v9.595c0,0.827-0.671,1.497-1.498,1.497
	s-1.497-0.67-1.497-1.497v-9.595c0-0.827,0.67-1.498,1.497-1.498S470.842,253.145,470.842,253.972z M470.842,288.752v9.595
	c0,0.828-0.671,1.498-1.498,1.498s-1.497-0.67-1.497-1.498v-9.595c0-0.827,0.67-1.498,1.497-1.498S470.842,287.925,470.842,288.752z
	 M445.658,276.159c0-0.827,0.671-1.498,1.498-1.498h9.595c0.827,0,1.497,0.671,1.497,1.498s-0.67,1.498-1.497,1.498h-9.595
	C446.329,277.657,445.658,276.986,445.658,276.159z M493.029,276.159c0,0.827-0.67,1.498-1.497,1.498h-9.595
	c-0.827,0-1.498-0.671-1.498-1.498s0.671-1.498,1.498-1.498h9.595C492.359,274.661,493.029,275.332,493.029,276.159z
	 M452.596,261.528c-0.585-0.585-0.585-1.532,0-2.117s1.533-0.585,2.118,0l6.784,6.785c0.586,0.585,0.586,1.532,0,2.117
	c-0.292,0.293-0.676,0.439-1.059,0.439s-0.766-0.146-1.059-0.439L452.596,261.528z M486.093,290.79c0.585,0.585,0.585,1.532,0,2.117
	c-0.293,0.293-0.676,0.439-1.06,0.439c-0.383,0-0.766-0.146-1.059-0.439l-6.785-6.785c-0.585-0.585-0.585-1.532,0-2.117
	s1.533-0.585,2.118,0L486.093,290.79z M461.498,284.005c0.586,0.585,0.586,1.532,0,2.117l-6.784,6.785
	c-0.293,0.293-0.676,0.439-1.06,0.439c-0.383,0-0.766-0.146-1.059-0.439c-0.585-0.585-0.585-1.532,0-2.117l6.785-6.785
	C459.966,283.42,460.914,283.42,461.498,284.005z M477.189,268.313c-0.585-0.585-0.585-1.532,0-2.117l6.785-6.785
	c0.585-0.585,1.533-0.585,2.118,0s0.585,1.532,0,2.117l-6.785,6.785c-0.293,0.293-0.676,0.439-1.06,0.439
	C477.865,268.753,477.482,268.606,477.189,268.313z"></path>
<path id="color_x5F_5" fill="#FFD2BB" d="M308.783,208.835c-4.93,10.98-17.075,25.896-25.932,33.508
	c-5.025,8.051-24.229,9.074-41.681,6.475c-1.853,0.404-3.847,0.707-5.945,0.915c-10.896,1.079-24.577-0.389-35.619-3.243
	l1.696-8.635l3.665-18.653c5.149,0.408,12.54,2.145,17.436,3.413c3.018,0.781,5.09,1.384,5.09,1.384s2.774,0.928,6.507,2.435
	c1.535,0.619,3.228,1.336,4.963,2.129l0.476-2.691c0-2.248-0.406-4.369-1.11-6.273c2.768,0.412,5.821,1.039,8.663,1.691
	c6.559-5.695,14.499-11.725,14.499-11.725s3.422-3.092,7.395-6.091c-1.512-1.625-2.446-3.853-2.446-6.313
	c0-0.707,0.085-1.392,0.23-2.052c0.086-0.39,0.196-0.768,0.328-1.136c1.217-3.395,4.309-5.813,7.941-5.813c4.694,0,8.5,4.029,8.5,9
	c0,0.615-0.059,1.217-0.17,1.797c-0.118,0.615-0.296,1.207-0.526,1.77c-0.502,1.229-1.259,2.312-2.195,3.184
	c-1.592,6.408-7.293,15.47-13.821,23.66c0.866,0.373,1.758,0.77,2.656,1.186c4.303-5.675,22.106-19.191,22.106-19.191
	s2.867-2.589,6.397-5.327l7.414,1.719C306.394,206.991,307.558,207.952,308.783,208.835z M196.535,160.872
	c-0.112,0.036-0.228,0.063-0.339,0.102l0.001,0.012C196.31,160.946,196.422,160.908,196.535,160.872z M196.196,160.974
	c-0.2,0.06-0.4,0.14-0.59,0.21c0.144-0.056,0.294-0.097,0.44-0.147C196.096,161.011,196.146,160.988,196.196,160.974z
	 M187.778,211.159v-17.863c-0.209-0.353-0.41-0.712-0.592-1.082c0,0-0.28-11.102,2.72-12.83c1.649-0.951,3.267,5.176,3.544,6.283
	c0.027,0.109,0.046,0.187,0.046,0.187s0.014-0.078,0.033-0.187c0.095-0.54,0.377-2.246,0.377-3.504c0-1.51,0.078-4.029,3.448-7.709
	c1.611-1.759,1.466-4.524,0.882-6.937c1.863,1.817,5.445,4.49,12,6.937c2.564,0.957,4.812,1.349,6.757,1.328
	c0,0.018,0.002,0.033,0.002,0.051v9.45c0,7.873-0.852,14.369-7.482,15.513v10.363H187.778z M211.608,180.665
	c0.089,0.882,0.592,1.553,1.138,1.494c0.538-0.059,0.912-0.822,0.827-1.709c-0.085-0.881-0.591-1.551-1.137-1.492
	C211.896,179.017,211.521,179.78,211.608,180.665z M200.302,180.665c0.089,0.882,0.592,1.553,1.138,1.494
	c0.538-0.059,0.912-0.822,0.827-1.709c-0.085-0.881-0.591-1.551-1.137-1.492C200.59,179.017,200.214,179.78,200.302,180.665z"></path>
<path id="color_x5F_4" fill="#00CEC9" d="M480.079,491.589H296.601c3.144-14.629,15.942-25.736,31.52-26.486
	c0.56-0.027,1.12-0.043,1.687-0.043c1.719,0,3.4,0.141,5.048,0.387c5.51,0.818,10.581,2.941,14.897,6.039
	c-0.418-1.717-0.662-3.506-0.662-5.352c0-12.652,10.4-22.912,23.227-22.912c9.465,0,17.589,5.596,21.211,13.609
	c1.355-15.415,13.835-27.688,29.485-28.942c0.873-0.069,1.754-0.113,2.646-0.113c16.677,0,30.398,12.481,32.097,28.489
	c0.034,0.329,0.057,0.661,0.081,0.992c0.059,0.78,0.098,1.564,0.098,2.359c0,3.822-0.719,7.467-1.971,10.86
	c0.648-0.056,1.303-0.099,1.971-0.099c0.757,0,1.505,0.038,2.242,0.111C471.142,471.578,479.738,480.562,480.079,491.589z
	 M166.755,351.302c-0.294-0.014-0.588-0.022-0.885-0.022c-0.902,0-1.784,0.074-2.649,0.202c-2.89,0.43-5.551,1.544-7.815,3.169
	c0.219-0.9,0.347-1.839,0.347-2.808c0-6.638-5.457-12.021-12.186-12.021c-4.966,0-9.228,2.936-11.128,7.141
	c-0.712-8.088-7.261-14.521-15.473-15.179c-0.458-0.036-0.918-0.065-1.385-0.065c-1.075,0-2.122,0.109-3.141,0.299
	c-7.278,1.349-12.916,7.281-13.697,14.648c-0.018,0.172-0.019,0.347-0.032,0.52c-0.031,0.41-0.063,0.82-0.063,1.239
	c0,0.275,0.024,0.545,0.038,0.817c0.088,1.706,0.429,3.346,0.996,4.881c-0.34-0.029-0.684-0.053-1.034-0.053
	c-0.397,0-0.79,0.021-1.178,0.059c-0.804,0.08-1.582,0.245-2.329,0.479c-4.598,1.436-7.958,5.615-8.112,10.592h96.264
	c-0.045-0.208-0.107-0.41-0.16-0.615C181.262,357.217,174.705,351.685,166.755,351.302z M146.91,472.182
	c-1.26,0.373-2.673,1.102-4.16,2.067c-3.682,2.392-7.805,6.3-11.102,10.258c-0.293,2.924-0.496,5.816-0.917,8.686h2.808
	c2.282-2.258,4.691-4.386,7.107-6.527c0.801-0.715,1.59-1.442,2.374-2.177c3.15-2.942,6.202-5.97,9.755-8.447
	c1.107-0.776,2.154,1.04,1.053,1.811c-3.835,2.673-7.194,6.013-10.613,9.219c-0.697,0.647-1.394,1.296-2.097,1.926
	c-1.547,1.389-3.095,2.77-4.6,4.196h10.257c4.129-2.906,7.964-5.604,11.836-9.909C164.618,476.604,156.458,469.355,146.91,472.182z
	 M132.138,461.809c-0.238-8.979-11.145-8.625-16.129,0c-3.811,6.6-1.787,23.713-0.63,31.384h4.391
	c-0.227-3.86-0.104-7.75,0.166-11.598c0.458-6.496,0.948-13.132,3.271-19.268c0.472-1.253,2.496-0.71,2.019,0.557
	c-0.954,2.515-1.59,5.12-2.055,7.769c-0.409,2.802-0.733,5.615-0.978,8.436c-0.055,0.837-0.11,1.669-0.159,2.507
	c-0.232,3.865-0.367,7.744-0.153,11.598h6.172c0.141-1.952,0.379-4.38,0.764-7.322C130.003,476.891,132.377,470.787,132.138,461.809
	z M96.516,471.834c-9.546-2.827-17.709,4.42-11.704,11.1c4.028,4.479,8.023,7.218,12.339,10.256h10.994
	c-0.392-0.396-0.78-0.793-1.175-1.186c-1.231-0.938-2.477-1.868-3.653-2.881c-4.408-3.796-8.911-7.456-12.967-11.637
	c-0.942-0.971,0.539-2.454,1.481-1.483c4.281,4.412,9.005,8.587,13.86,12.362c2.037,1.58,4.153,3.094,6.04,4.824h0.789
	c-0.69-2.982-1.243-5.99-1.551-9.034C106.343,478.605,100.893,473.129,96.516,471.834z"></path>
<path id="color_x5F_3" fill="#E84393" d="M496.322,440.129c-11.681,12.237-30.078,15.347-38.567,16.136
	c-1.698-16.008-15.42-28.489-32.097-28.489c-0.892,0-1.772,0.044-2.646,0.113c-2.915-12.864-3.975-25.685,3.137-26.349
	c9.632-0.901,13.764,7.871,15.452,13.837c-2.848-14.556-9.541-53.648,2.563-45.302c14.809,10.209,10.606,32.303,10.606,32.303
	s6.318-3.369,9.426-18.385c0.939-4.543,1.799-11.855,3.067-19.41c0.675-4.022,1.468-8.111,2.45-11.891
	c3.271-12.584,8.655-21.711,18.896-13.308c19.092,15.669,11.206,42.099-1.563,53.276c-12.77,11.179,18.174-13.687,22.197,0.65
	c3.396,12.101-18.745,31.453-27.864,36.963C491.416,429.008,507.477,428.441,496.322,440.129z M457.836,457.257
	c0.059,0.78,0.098,1.564,0.098,2.359c0,3.822-0.719,7.467-1.971,10.86c0.648-0.056,1.303-0.099,1.971-0.099
	c0.757,0,1.505,0.038,2.242,0.111c4.223-0.461,8.388-1.232,12.222-2.449C487.771,463.165,467.531,458.903,457.836,457.257z
	 M115.322,317.953c-5.054-0.473-7.221,4.13-8.106,7.26c1.493-7.633,5.007-28.147-1.346-23.769
	c-7.77,5.356-5.564,16.948-5.564,16.948s-3.315-1.767-4.945-9.646c-1.629-7.879-2.792-31.624-12.809-23.404
	c-10.017,8.221-5.879,22.088,0.819,27.952c6.7,5.865-9.535-7.181-11.646,0.341c-1.783,6.349,9.834,16.502,14.619,19.393
	c-5.265-0.664-13.691-0.962-7.838,5.171c6.128,6.421,15.783,8.052,20.236,8.466c0.782-7.367,6.419-13.3,13.697-14.648
	c1.019-0.189,2.066-0.299,3.141-0.299c0.467,0,0.928,0.029,1.385,0.065c0.406-1.79,0.74-3.573,0.947-5.242
	C118.486,321.917,118.065,318.21,115.322,317.953z M98.646,348.424c0-0.419,0.033-0.829,0.063-1.239
	c-5.082,0.861-15.725,3.1-7.652,5.658c1.443,0.458,2.976,0.793,4.545,1.037c0.618,0.097,1.24,0.18,1.866,0.248
	c0.388-0.038,0.78-0.059,1.178-0.059c0.351,0,0.694,0.023,1.034,0.053c-0.567-1.535-0.908-3.175-0.996-4.881
	C98.67,348.969,98.646,348.699,98.646,348.424z M442.279,229.209c9.08,0.61,17.12,0.521,24.22-0.16
	c-3.442-0.39-6.727-1.505-9.774-3.215c-5.775-3.239-10.689-8.642-14.164-15.446c-3.488-6.828-5.531-15.06-5.531-23.929
	c0-11.069,3.176-21.15,8.381-28.741c4.456-6.498,10.398-11.17,17.117-13.069c2.062-0.583,4.195-0.906,6.382-0.939
	c-7.92-0.939-16.8-1.01-26.63,0c-5.166,0.53-10.057,2.387-14.399,5.324c-0.389,0.263-0.774,0.531-1.154,0.812
	c-1.849,1.365-3.587,2.934-5.193,4.686c6.156,7.785,9.997,18.762,9.997,30.929c0,12.052-3.764,22.929-9.813,30.695
	c-0.35,0.448-0.705,0.888-1.069,1.315c-0.027,0.032-0.055,0.065-0.082,0.098C426.301,224.38,433.926,228.645,442.279,229.209z
	 M309.431,154.779l-35.396,4.929v0.83c-4.035,1.269-7.55,3.668-10.05,6.887c-2.475,3.186-3.955,7.174-3.955,11.666
	c0,6.104,2.725,11.361,6.969,14.881c1.217-3.395,4.309-5.813,7.941-5.813c4.694,0,8.5,4.029,8.5,9c0,0.615-0.059,1.217-0.17,1.797
	c-0.118,0.615-0.296,1.207-0.526,1.77l15.144,3.511l7.414,1.719c-1.406-1.331-2.699-2.779-3.854-4.34
	c-0.018-0.023-0.033-0.048-0.05-0.071c-3.998-5.436-6.368-12.165-6.368-19.621c0-7.473,2.389-14.137,6.41-19.517
	C303.65,159.448,306.357,156.88,309.431,154.779z M371.973,162.726c1.015-2.137,2.162-4.148,3.438-6.008
	c0.098-0.143,0.2-0.279,0.299-0.42c4.422-6.276,10.247-10.792,16.818-12.649c2.062-0.583,4.195-0.906,6.382-0.939
	c-7.92-0.939-16.8-1.01-26.63,0c-5.166,0.53-10.057,2.387-14.399,5.324l-3.815,0.531c0.9,0.083,1.785,0.179,2.661,0.28
	c-4.002,2.954-7.493,6.855-10.231,11.521c-1.236,2.106-2.318,4.368-3.228,6.768c-2.071,5.466-3.237,11.644-3.237,18.326
	c0,4.099,0.445,8.021,1.26,11.72c0.041,0.188,0.079,0.377,0.123,0.563c1.566,6.755,4.395,12.729,8.13,17.56
	c-1.052,0.064-2.12,0.121-3.213,0.166l4.118,0.955c5.75,6.896,13.421,11.218,21.832,11.786c9.08,0.61,17.12,0.521,24.22-0.16
	c-3.442-0.39-6.727-1.505-9.774-3.215c-5.775-3.239-10.689-8.642-14.164-15.446c-0.566-1.108-1.094-2.254-1.581-3.435
	c-0.282-0.681-0.549-1.374-0.803-2.077c-0.746-2.067-1.376-4.223-1.866-6.458c-0.833-3.795-1.281-7.808-1.281-11.959
	c0-7.871,1.61-15.239,4.409-21.572C371.611,163.495,371.791,163.108,371.973,162.726z"></path>
<path id="color_x5F_2" fill="#FBC02D" d="M189.652,483.293l15.655,9.974h-32.84v-4.273c-0.79-11.935-3.355-49.117-4.75-51.21h9.5
	h24.141h2.108L189.652,483.293z M252.292,481.759l-0.191-42.104h-5.146h-22.249h-8.146c-1.59,0,18.131,48.525,19.833,52.706v0.189
	h0.078c0.024,0.063,0.042,0.104,0.042,0.104l0.228-0.104h32.492L252.292,481.759z M171.539,305.159h11.505h35.948h6.447l0.15-0.85
	l9.637-54.577c-10.896,1.079-24.577-0.389-35.619-3.243l1.696-8.635l3.665-18.653c5.149,0.408,12.54,2.145,17.436,3.413
	c3.018,0.781,5.09,1.384,5.09,1.384s2.774,0.928,6.507,2.435c1.535,0.619,3.228,1.336,4.963,2.129l0.476-2.691
	c0-2.248-0.406-4.369-1.11-6.273c-1.844-4.982-5.799-8.438-10.396-8.438h-18.419h-21.736h-18.832
	c-6.355,0-11.507,6.586-11.507,14.711l14,79.289H171.539z"></path>
<path id="color_x5F__x21_" fill="#0D4B6B" d="M426.726,149.845c-0.876-0.102-1.761-0.197-2.661-0.28
	c-0.052-0.005-0.103-0.011-0.155-0.016c-2.47-0.229-5.044-0.383-7.699-0.475c-2.61-2.138-5.467-3.799-8.501-4.885
	c-2.689-0.971-5.52-1.48-8.43-1.48h-0.37c-2.187,0.033-4.32,0.356-6.382,0.939c-6.571,1.857-12.396,6.373-16.818,12.649
	c-0.099,0.141-0.201,0.277-0.299,0.42c-1.275,1.859-2.423,3.871-3.438,6.008c-0.182,0.383-0.361,0.77-0.534,1.161
	c-2.799,6.333-4.409,13.701-4.409,21.572c0,4.151,0.448,8.164,1.281,11.959c0.49,2.235,1.12,4.391,1.866,6.458
	c0.254,0.703,0.521,1.396,0.803,2.077c0.487,1.181,1.015,2.326,1.581,3.435c3.475,6.805,8.389,12.207,14.164,15.446
	c3.048,1.71,6.332,2.825,9.774,3.215c0.921,0.11,1.841,0.16,2.78,0.16c3.67,0,7.19-0.81,10.48-2.319
	c4.021-1.828,7.68-4.682,10.805-8.322c0.027-0.032,0.055-0.065,0.082-0.098c0.364-0.428,0.72-0.867,1.069-1.315
	c6.05-7.767,9.813-18.644,9.813-30.695c0-12.167-3.841-23.144-9.997-30.929C423.139,152.778,424.877,151.21,426.726,149.845z
	 M423.985,185.459c0,9.817-3.259,18.618-8.42,24.617c-1.688,1.964-3.587,3.608-5.636,4.908c-0.851,0.54-1.72,1.038-2.621,1.448
	c-0.134,0.062-0.27,0.115-0.405,0.174c-2.403,1.04-4.962,1.603-7.624,1.603c-0.72,0-1.425-0.038-2.13-0.122
	c-1.616-0.184-3.188-0.575-4.7-1.15c-1.601-0.609-3.132-1.432-4.581-2.435c-2.298-1.589-4.384-3.642-6.187-6.067
	c-1.088-1.464-2.071-3.063-2.938-4.775c-2.631-5.206-4.171-11.463-4.171-18.2c0-8.528,2.462-16.29,6.491-22.117
	c3.047-4.407,6.992-7.702,11.452-9.382c0.003-0.002,0.007-0.003,0.01-0.004c2.061-0.775,4.229-1.213,6.47-1.247h0.283
	c0.562,0,1.118,0.025,1.671,0.074c1.643,0.146,3.245,0.503,4.787,1.06c4.017,1.438,7.623,4.193,10.553,7.884
	C421.026,167.693,423.985,176.116,423.985,185.459z M477.709,145.189c-2.689-0.971-5.52-1.48-8.43-1.48h-0.37
	c-2.187,0.033-4.32,0.356-6.382,0.939c-6.719,1.899-12.661,6.571-17.117,13.069c-5.205,7.591-8.381,17.672-8.381,28.741
	c0,8.869,2.043,17.101,5.531,23.929c3.475,6.805,8.389,12.207,14.164,15.446c3.048,1.71,6.332,2.825,9.774,3.215
	c0.921,0.11,1.841,0.16,2.78,0.16c3.67,0,7.19-0.81,10.48-2.319c12.67-5.761,21.77-21.681,21.77-40.431
	C501.529,166.719,491.43,150.1,477.709,145.189z M477.309,217.433c-2.521,1.156-5.218,1.776-8.029,1.776
	c-0.72,0-1.425-0.038-2.13-0.122c-1.616-0.184-3.188-0.575-4.7-1.15c-5.669-2.158-10.499-6.936-13.705-13.277
	c-2.631-5.206-4.171-11.463-4.171-18.2c0-8.528,2.462-16.29,6.491-22.117c3.047-4.407,6.992-7.702,11.452-9.382
	c2.063-0.777,4.234-1.217,6.479-1.251h0.283c2.229,0,4.397,0.391,6.458,1.134c10.511,3.762,18.248,16.494,18.248,31.616
	C493.985,200.823,487.015,213.019,477.309,217.433z M247.789,379.028l-0.011,0.787c0.006,0.074,0.011,0.125,0.011,0.125
	l-0.013,0.009l-0.821,59.705h-22.249c-1.342-5.146-2.499-10.021-3.255-14.053c-2.612-13.92,0.834-24.071,6.004-31.273l-0.003,0.002
	c0,0-2.96-5.734-7.418-13.688c-1.511,6.495-2.933,10.494-2.933,10.494l-15.742,46.647h-24.141
	c0.542-7.501,1.234-14.493,2.113-19.505c2.223-12.663,7.618-19.755,13.655-23.64c-0.887-6.589-2.584-18.26-4.92-30.056
	c-2.418-12.214-5.521-24.562-9.114-31.539c-3.608-7.003-5.69-15.857-6.892-23.982c-0.196-1.324-0.369-2.628-0.521-3.902h11.505
	h35.948h6.447l0.15-0.85c1.328,3.859,2.774,7.973,4.28,12.117c2.237,6.156,4.604,12.375,6.911,17.908
	c4.412,10.586,7.133,21.659,8.769,30.248c1.347,7.076,1.956,12.453,2.157,14.474C247.759,379.038,247.789,379.028,247.789,379.028z
	 M202.267,180.45c0.085,0.887-0.289,1.65-0.827,1.709c-0.546,0.059-1.049-0.612-1.138-1.494c-0.088-0.885,0.288-1.648,0.828-1.707
	C201.676,178.899,202.182,179.569,202.267,180.45z M213.573,180.45c0.085,0.887-0.289,1.65-0.827,1.709
	c-0.546,0.059-1.049-0.612-1.138-1.494c-0.088-0.885,0.288-1.648,0.828-1.707C212.982,178.899,213.488,179.569,213.573,180.45z
	 M183.064,185.533c-3-9.874-0.5-18.374-0.5-18.374c3.25-7.125,8-6.625,13.042-5.976c0.144-0.056,0.294-0.097,0.44-0.147
	c0.049-0.025,0.099-0.048,0.15-0.063l0.001,0.012c0.112-0.039,0.224-0.077,0.337-0.113c0.216-0.069,0.434-0.137,0.655-0.197
	c0.253-0.068,0.511-0.126,0.77-0.182c0.18-0.04,0.358-0.082,0.541-0.115c0.307-0.055,0.618-0.095,0.931-0.132
	c0.148-0.018,0.294-0.042,0.444-0.056c0.465-0.042,0.935-0.066,1.411-0.066c4.34,0,8.26,1.76,11.11,4.6
	c0.446,0.446,0.855,0.929,1.246,1.427l0.464,0.01c0,0,1.667-7.333,9-4.333c5.842,2.39,4.045,13.852-6.113,13.955
	c-1.945,0.021-4.193-0.371-6.757-1.328c-6.555-2.446-10.137-5.119-12-6.937c0.584,2.412,0.729,5.178-0.882,6.937
	c-3.37,3.68-3.448,6.199-3.448,7.709c0,1.258-0.282,2.964-0.377,3.504c-0.019,0.108-0.033,0.187-0.033,0.187
	s-0.019-0.077-0.046-0.187c-0.277-1.107-1.895-7.234-3.544-6.283c-3,1.729-2.72,12.83-2.72,12.83
	C186.156,190.124,184.495,190.241,183.064,185.533z M266.998,193.972c-0.132,0.368-0.242,0.746-0.328,1.136l-23.727-5.501v-0.476
	c-3.972-1.194-6.914-4.746-6.914-9.208c0-4.457,2.949-7.912,6.914-9.158v-0.41l21.042-2.93c-2.475,3.186-3.955,7.174-3.955,11.666
	C260.029,185.195,262.754,190.452,266.998,193.972z M354.064,148.564c0.9,0.083,1.785,0.179,2.661,0.28
	c-4.002,2.954-7.493,6.855-10.231,11.521c-1.236,2.106-2.318,4.368-3.228,6.768c-2.071,5.466-3.237,11.644-3.237,18.326
	c0,4.099,0.445,8.021,1.26,11.72c0.041,0.188,0.079,0.377,0.123,0.563c1.566,6.755,4.395,12.729,8.13,17.56
	c-1.052,0.064-2.12,0.121-3.213,0.166c-5.772,0.238-12.104,0.195-19.05-0.169c-6.875-0.362-13.254-2.688-18.496-6.464
	c-1.226-0.883-2.39-1.844-3.482-2.88c-1.406-1.331-2.699-2.779-3.854-4.34c-0.018-0.023-0.033-0.048-0.05-0.071
	c-3.998-5.436-6.368-12.165-6.368-19.621c0-7.473,2.389-14.137,6.41-19.517c2.211-2.958,4.918-5.526,7.991-7.627
	c5.122-3.501,11.265-5.702,17.849-6.23c9.83-0.788,18.71-0.733,26.63,0C353.962,148.554,354.013,148.56,354.064,148.564z"></path>
</svg>